<?xml version="1.0" encoding="utf-8"?>
<!-- Generator: Adobe Illustrator 23.1.0, SVG Export Plug-In . SVG Version: 6.00 Build 0)  -->
<svg version="1.1" id="Layer_1" xmlns="http://www.w3.org/2000/svg" xmlns:xlink="http://www.w3.org/1999/xlink" x="0px" y="0px"
	 viewBox="0 0 300.5 202.3" style="enable-background:new 0 0 300.5 202.3;" xml:space="preserve">
<style type="text/css">
	.st0{fill:none;stroke:#2F6EB2;stroke-miterlimit:10;}
	.st1{fill:none;stroke:#F4602C;stroke-width:1.5;stroke-miterlimit:10;}
	.st2{fill:#F4602C;}
	.st3{fill:none;stroke:#0C772A;stroke-miterlimit:10;}
	.st4{fill:#0C772A;}
	.st5{fill:#3AD836;}
	.st6{fill:none;stroke:#000000;stroke-linejoin:round;}
	.st7{font-family:'CMUSansSerif';}
	.st8{font-size:9px;}
	.st9{fill:none;stroke:#0C772A;stroke-width:0.6;stroke-miterlimit:10;}
	.st10{fill:#C90000;stroke:#C90000;stroke-width:0.6;stroke-miterlimit:10;}
	.st11{fill:#C90000;}
	.st12{fill:#FF4848;}
	.st13{fill:none;stroke:#C90000;stroke-width:0.6;stroke-miterlimit:10;}
</style>
<title>interactions</title>
<path class="st0" d="M21.6,17.3h98.6c11.7,0,21.1,9.5,21.1,21.1v45.9c0,11.7-9.5,21.1-21.1,21.1H21.6C10,105.5,0.5,96,0.5,84.4V38.5
	C0.5,26.8,10,17.3,21.6,17.3z"/>
<path class="st0" d="M100.9,128.6h98.6c11.7,0,21.1,9.5,21.1,21.1v27.1c0,11.7-9.5,21.1-21.1,21.1h-98.6c-11.7,0-21.1-9.5-21.1-21.1
	v-27.1C79.8,138,89.3,128.6,100.9,128.6z"/>
<path class="st1" d="M86.9,66.9h-6.5c-4,0-3,11.9-4.7,12c-1.3,0-1.5-24.6-3.2-27.3s-1.8,35.1-3.9,37.4s-2.1-47.4-4.3-49.2
	S62,96.9,59.6,98.2C58.1,99,56.7,34,54.7,34s-3.2,67.9-5.3,67.9S46.2,34,44.1,34s-3.4,65.1-4.9,64.3c-2.4-1.3-2.4-60.2-4.7-58.5
	S32.3,91.1,30.1,89s-2-40.1-3.9-37.4s-1.9,27.3-3.1,27.3c-1.7-0.1-0.7-12-4.7-12h-6.5"/>
<polygon class="st2" points="97.5,66.8 82.6,60.8 86.1,66.8 82.6,72.9 "/>
<line class="st3" x1="127.4" y1="66.8" x2="114.7" y2="66.8"/>
<polygon class="st4" points="110.2,66.8 116.6,64.2 115.1,66.8 116.6,69.5 "/>
<circle class="st5" cx="126.2" cy="66.8" r="3.9"/>
<path class="st4" d="M126.2,63.5c1.9,0,3.4,1.5,3.4,3.4s-1.5,3.4-3.4,3.4c-1.9,0-3.4-1.5-3.4-3.4c0,0,0,0,0,0
	C122.8,65,124.3,63.4,126.2,63.5 M126.2,62.5c-2.4,0-4.4,2-4.4,4.4c0,2.4,2,4.4,4.4,4.4c2.4,0,4.4-2,4.4-4.4c0,0,0,0,0,0
	C130.6,64.4,128.7,62.5,126.2,62.5C126.2,62.4,126.2,62.4,126.2,62.5z"/>
<path d="M45,27.3V22h0.5v5.2H45z"/>
<path d="M46.4,26.4c0-0.2,0.1-0.3,0.2-0.5c0.1-0.1,0.3-0.2,0.5-0.3c0.2-0.1,0.4-0.1,0.6-0.2c0.2,0,0.4,0,0.6,0v-0.3
	c0-0.2,0-0.5-0.2-0.7c-0.1-0.1-0.3-0.2-0.5-0.2c-0.4,0-0.8,0.1-1.1,0.4v-0.5c0.3-0.2,0.7-0.3,1.1-0.3c0.3,0,0.6,0.1,0.8,0.3
	c0.2,0.2,0.4,0.5,0.4,0.8v2.2h-0.5V27h-0.2c-0.3,0.2-0.7,0.2-1.1,0.2c-0.2,0-0.5-0.1-0.6-0.2C46.5,26.9,46.4,26.7,46.4,26.4z
	 M47,26.4c0,0.1,0.1,0.3,0.2,0.3c0.1,0.1,0.3,0.1,0.5,0.1c0.2,0,0.4,0,0.5-0.1c0.2-0.1,0.3-0.3,0.3-0.5v-0.5H48L47.5,26
	c-0.1,0-0.3,0.1-0.4,0.2C47,26.2,47,26.3,47,26.4L47,26.4z"/>
<path d="M49.8,27l0.1-0.5l0.1,0.1l0.1,0.1l0.1,0.1l0.2,0.1H51c0.2,0,0.4,0,0.6-0.1c0.1-0.1,0.2-0.2,0.2-0.3c0-0.1-0.1-0.3-0.2-0.3
	c-0.1-0.1-0.2-0.1-0.3-0.2l-0.3-0.1l-0.4,0c-0.2-0.1-0.4-0.2-0.5-0.3c-0.1-0.2-0.2-0.4-0.2-0.6c0-0.1,0-0.2,0-0.3
	c0-0.1,0.1-0.2,0.2-0.3c0.1-0.1,0.3-0.2,0.4-0.2c0.2-0.1,0.4-0.1,0.6-0.1c0.3,0,0.7,0.1,1,0.2l-0.1,0.5h-1c-0.2,0-0.3,0-0.5,0.1
	c-0.1,0.1-0.1,0.2-0.1,0.3c0.1,0,0.2,0.1,0.3,0c0.2,0.1,0.4,0.1,0.5,0.2c0.2,0,0.3,0.1,0.5,0.1c0.2,0.1,0.3,0.2,0.4,0.4
	c0.1,0.2,0.2,0.4,0.2,0.5c0,0.1,0,0.2,0,0.3c0,0.1-0.1,0.2-0.2,0.3c-0.1,0.1-0.2,0.2-0.4,0.3c-0.2,0.1-0.4,0.1-0.6,0.1
	C50.6,27.4,50.2,27.3,49.8,27z"/>
<path d="M52.5,25.6c0-0.4,0.1-0.9,0.4-1.2c0.2-0.3,0.6-0.5,1-0.5c0.2,0,0.3,0,0.5,0.1c0.1,0.1,0.3,0.1,0.4,0.2
	c0.1,0.1,0.3,0.3,0.3,0.5c0.1,0.2,0.2,0.5,0.2,0.8v0.2h-2.2c0,0.3,0.1,0.6,0.3,0.9c0.2,0.2,0.5,0.3,0.7,0.3c0.4,0,0.8-0.2,1.1-0.4
	V27c-0.3,0.2-0.7,0.4-1.1,0.4c-0.4,0-0.8-0.2-1.1-0.5C52.7,26.5,52.5,26.1,52.5,25.6z M53.1,25.3h1.8c0-0.2-0.1-0.3-0.2-0.5
	c-0.1-0.2-0.3-0.3-0.5-0.4H54c-0.2,0-0.5,0.1-0.6,0.3C53.2,24.9,53.2,25.1,53.1,25.3L53.1,25.3z"/>
<path d="M56.2,27.3V24h0.5v0.6c0.1-0.1,0.1-0.2,0.2-0.3c0.1-0.1,0.3-0.2,0.4-0.3c0.2-0.1,0.4-0.1,0.6-0.1v0.5c-0.1,0-0.3,0-0.4,0.1
	c-0.1,0-0.3,0.1-0.4,0.2c-0.1,0.1-0.3,0.2-0.3,0.4c-0.1,0.2-0.1,0.4-0.1,0.6v1.5H56.2z"/>
<path d="M123.2,56.3c0-0.4,0.1-0.9,0.4-1.2c0.2-0.3,0.6-0.5,1-0.5c0.1,0,0.3,0,0.4,0.1c0.1,0,0.3,0.1,0.4,0.2
	c0.2,0.1,0.3,0.3,0.3,0.5c0.1,0.2,0.2,0.5,0.1,0.8v0.2h-2.2c0,0.3,0.1,0.6,0.3,0.9c0.2,0.2,0.5,0.3,0.7,0.3c0.4,0,0.8-0.1,1.1-0.4
	l0.1,0.5c-0.3,0.2-0.7,0.3-1.1,0.4c-0.4,0-0.8-0.2-1.1-0.5C123.3,57.2,123.2,56.7,123.2,56.3z M123.7,55.9h1.8
	c0-0.2-0.1-0.3-0.1-0.5c-0.1-0.1-0.1-0.2-0.3-0.3c-0.1-0.1-0.2-0.1-0.3-0.1h-0.2c-0.2,0-0.5,0.1-0.6,0.3
	C123.9,55.5,123.8,55.8,123.7,55.9L123.7,55.9z"/>
<path d="M126.6,53.5V53h2.6v0.5H126.6z"/>
<path class="st0" d="M180.2,17.3h98.6c11.7,0,21.1,9.5,21.1,21.1v45.9c0,11.7-9.5,21.1-21.1,21.1h-98.6c-11.7,0-21.1-9.5-21.1-21.1
	V38.5C159.1,26.8,168.6,17.3,180.2,17.3z"/>
<path class="st1" d="M245.5,66.9H239c-4,0-3,11.9-4.7,12c-1.3,0-1.5-24.6-3.2-27.3s-1.9,35.1-3.9,37.4s-2.1-47.4-4.3-49.2
	s-2.3,57.2-4.7,58.5c-1.5,0.8-2.9-64.3-4.9-64.3s-3.2,67.9-5.3,67.9S204.8,34,202.7,34s-3.4,65.1-4.9,64.3
	c-2.4-1.3-2.4-60.2-4.7-58.5s-2.2,51.4-4.3,49.2s-2-40.1-3.9-37.4s-1.9,27.3-3.2,27.3c-1.7-0.1-0.7-12-4.7-12h-6.5"/>
<polygon class="st2" points="256.1,66.8 241.2,60.8 244.7,66.8 241.2,72.9 "/>
<path d="M203.6,27.3V22h0.6v5.2H203.6z"/>
<path d="M205,26.4c0-0.2,0.1-0.3,0.2-0.5c0.1-0.1,0.3-0.3,0.5-0.3c0.2-0.1,0.4-0.1,0.6-0.2c0.2,0,0.4,0,0.6,0v-0.3
	c0-0.2-0.1-0.5-0.2-0.7c-0.1-0.1-0.3-0.2-0.5-0.2c-0.4,0-0.8,0.1-1.1,0.4v-0.5c0.3-0.2,0.7-0.3,1.1-0.3c0.3,0,0.6,0.1,0.8,0.3
	c0.2,0.2,0.4,0.5,0.4,0.8v2.2h-0.5V27h-0.2c-0.3,0.2-0.7,0.2-1.1,0.2c-0.2,0-0.5-0.1-0.6-0.2C205.1,26.9,205.1,26.7,205,26.4z
	 M205.6,26.4c0,0.1,0.1,0.3,0.2,0.3c0.1,0.1,0.3,0.1,0.5,0.1c0.2,0,0.4,0,0.6-0.1c0.2-0.1,0.3-0.3,0.3-0.5v-0.5h-0.4l-0.4,0.1
	c-0.1,0-0.3,0.1-0.4,0.2C205.6,26.2,205.6,26.3,205.6,26.4L205.6,26.4z"/>
<path d="M208.4,27l0.1-0.5l0.1,0.1l0.1,0.1l0.1,0.1l0.2,0.1h0.6c0.2,0,0.4,0,0.6-0.1c0.1-0.1,0.2-0.2,0.2-0.3c0-0.1-0.1-0.3-0.2-0.3
	c-0.1-0.1-0.2-0.1-0.3-0.2l-0.3-0.1l-0.4,0c-0.2-0.1-0.4-0.2-0.5-0.3c-0.1-0.2-0.2-0.4-0.2-0.6c0-0.1,0-0.2,0-0.3
	c0-0.1,0.1-0.2,0.2-0.3c0.1-0.1,0.3-0.2,0.4-0.2c0.2-0.1,0.4-0.1,0.6-0.1c0.3,0,0.7,0.1,1,0.2l-0.1,0.5h-1c-0.2,0-0.3,0-0.5,0.1
	c-0.1,0.1-0.1,0.2-0.1,0.3c0.1,0,0.2,0,0.3,0c0.2,0.1,0.4,0.1,0.5,0.2c0.2,0,0.3,0.1,0.5,0.1c0.2,0.1,0.3,0.2,0.4,0.3
	c0.1,0.2,0.2,0.4,0.2,0.5c0,0.1,0,0.2,0,0.3c0,0.1-0.1,0.2-0.2,0.3c-0.1,0.1-0.2,0.2-0.4,0.3c-0.2,0.1-0.4,0.1-0.6,0.1
	C209.2,27.3,208.8,27.2,208.4,27z"/>
<path d="M211.1,25.6c0-0.4,0.1-0.9,0.4-1.2c0.2-0.3,0.6-0.5,1-0.5c0.2,0,0.3,0,0.5,0.1c0.1,0.1,0.3,0.1,0.4,0.2
	c0.1,0.1,0.3,0.3,0.3,0.5c0.1,0.2,0.2,0.5,0.2,0.8v0.2h-2.2c0,0.3,0.1,0.6,0.3,0.9c0.2,0.2,0.5,0.3,0.7,0.3c0.4,0,0.8-0.2,1.1-0.4
	V27c-0.3,0.2-0.7,0.4-1.1,0.4c-0.4,0-0.8-0.2-1.1-0.5C211.3,26.5,211.1,26.1,211.1,25.6z M211.7,25.3h1.8c0-0.2-0.1-0.3-0.1-0.5
	c-0.1-0.2-0.3-0.3-0.5-0.4h-0.2c-0.2,0-0.5,0.1-0.6,0.3C211.9,24.9,211.8,25.1,211.7,25.3L211.7,25.3z"/>
<path d="M214.7,27.3V24h0.5v0.6c0.1-0.1,0.1-0.2,0.2-0.3c0.1-0.1,0.3-0.2,0.4-0.3c0.2-0.1,0.4-0.2,0.6-0.1v0.5c-0.1,0-0.3,0-0.4,0.1
	c-0.1,0-0.3,0.1-0.4,0.2c-0.1,0.1-0.3,0.2-0.3,0.4c-0.1,0.2-0.1,0.4-0.1,0.6v1.5H214.7z"/>
<path class="st6" d="M295.1,66.8h-0.6c-1.3,0-2.4,0.8-2.8,2c-0.4,1.2-0.9,2-1.6,2c-2.2,0-2.2-7.9-4.4-7.9s-2.2,7.9-4.4,7.9
	s-2.2-7.9-4.4-7.9s-2.2,7.9-4.4,7.9c-0.7,0-1.2-0.9-1.6-2c-0.4-1.2-1.5-2-2.8-2h-1.4"/>
<polygon points="267.8,65.2 267.1,66.8 267.8,68.5 263.9,66.8 "/>
<text transform="matrix(1 0 0 1 280.82 57.91)" class="st7 st8">γ</text>
<g>
	<line class="st9" x1="167.4" y1="162.6" x2="162.8" y2="162.6"/>
	<polygon class="st4" points="161.1,162.6 163.4,161.6 162.9,162.6 163.4,163.6 	"/>
	<circle class="st5" cx="167.4" cy="162.6" r="2.3"/>
	<path class="st4" d="M167.4,160.6c1.1,0,2,0.9,2,2s-0.9,2-2,2s-2-0.9-2-2S166.3,160.6,167.4,160.6 M167.4,160
		c-1.4,0-2.6,1.2-2.6,2.6c0,1.4,1.2,2.6,2.6,2.6c1.4,0,2.6-1.2,2.6-2.6c0,0,0,0,0,0C170,161.1,168.9,160,167.4,160z"/>
	<line class="st9" x1="172.7" y1="170.6" x2="168" y2="170.6"/>
	<polygon class="st4" points="166.3,170.6 168.7,169.6 168.2,170.6 168.7,171.6 	"/>
	<circle class="st5" cx="172.7" cy="170.6" r="2.3"/>
	<path class="st4" d="M172.7,168.6c1.1,0,2,0.9,2,2s-0.9,2-2,2s-2-0.9-2-2S171.6,168.6,172.7,168.6 M172.7,168
		c-1.4,0-2.6,1.2-2.6,2.6c0,1.4,1.2,2.6,2.6,2.6c1.4,0,2.6-1.2,2.6-2.6c0,0,0,0,0,0C175.3,169.1,174.1,168,172.7,168z"/>
	<line class="st9" x1="170.9" y1="178.2" x2="166.2" y2="178.2"/>
	<polygon class="st4" points="164.5,178.2 166.9,177.2 166.3,178.2 166.9,179.2 	"/>
	<circle class="st5" cx="170.9" cy="178.2" r="2.3"/>
	<path class="st4" d="M170.9,176.2c1.1,0,2,0.9,2,2s-0.9,2-2,2s-2-0.9-2-2S169.8,176.2,170.9,176.2 M170.9,175.6
		c-1.4,0-2.6,1.2-2.6,2.6c0,1.4,1.2,2.6,2.6,2.6s2.6-1.2,2.6-2.6c0,0,0,0,0,0C173.5,176.8,172.4,175.6,170.9,175.6
		C170.9,175.6,170.9,175.6,170.9,175.6z"/>
	<line class="st9" x1="163.2" y1="173.6" x2="158.6" y2="173.6"/>
	<polygon class="st4" points="156.9,173.6 159.3,172.7 158.7,173.6 159.3,174.6 	"/>
	<circle class="st5" cx="163.2" cy="173.6" r="2.3"/>
	<path class="st4" d="M163.2,171.6c1.1,0,2,0.9,2,2s-0.9,2-2,2s-2-0.9-2-2S162.1,171.6,163.2,171.6 M163.2,171
		c-1.4,0-2.6,1.2-2.6,2.6s1.2,2.6,2.6,2.6c1.4,0,2.6-1.2,2.6-2.6c0,0,0,0,0,0C165.8,172.2,164.7,171,163.2,171z"/>
	<line class="st9" x1="175.9" y1="158.6" x2="171.2" y2="158.6"/>
	<polygon class="st4" points="169.5,158.6 171.9,157.6 171.3,158.6 171.9,159.6 	"/>
	<circle class="st5" cx="175.9" cy="158.6" r="2.3"/>
	<path class="st4" d="M175.9,156.6c1.1,0,2,0.9,2,2s-0.9,2-2,2s-2-0.9-2-2S174.8,156.6,175.9,156.6 M175.9,156
		c-1.4,0-2.6,1.2-2.6,2.6c0,1.4,1.2,2.6,2.6,2.6s2.6-1.2,2.6-2.6c0,0,0,0,0,0C178.5,157.1,177.3,156,175.9,156z"/>
	<line class="st9" x1="180.3" y1="176.2" x2="175.6" y2="176.2"/>
	<polygon class="st4" points="173.9,176.2 176.3,175.2 175.7,176.2 176.3,177.2 	"/>
	<circle class="st5" cx="180.3" cy="176.2" r="2.3"/>
	<path class="st4" d="M180.3,174.2c1.1,0,2,0.9,2,2s-0.9,2-2,2s-2-0.9-2-2S179.2,174.2,180.3,174.2 M180.3,173.6
		c-1.4,0-2.6,1.2-2.6,2.6c0,1.4,1.2,2.6,2.6,2.6s2.6-1.2,2.6-2.6c0,0,0,0,0,0C182.9,174.8,181.7,173.6,180.3,173.6
		C180.3,173.6,180.3,173.6,180.3,173.6z"/>
	<line class="st9" x1="189.5" y1="172.6" x2="184.8" y2="172.6"/>
	<polygon class="st4" points="183.1,172.6 185.5,171.6 184.9,172.6 185.5,173.6 	"/>
	<circle class="st5" cx="189.5" cy="172.6" r="2.3"/>
	<path class="st4" d="M189.5,170.6c1.1,0,2,0.9,2,2s-0.9,2-2,2s-2-0.9-2-2S188.4,170.6,189.5,170.6 M189.5,170
		c-1.4,0-2.6,1.2-2.6,2.6s1.2,2.6,2.6,2.6c1.4,0,2.6-1.2,2.6-2.6C192.1,171.1,190.9,170,189.5,170L189.5,170z"/>
	<line class="st9" x1="188.5" y1="161.8" x2="183.8" y2="161.8"/>
	<polygon class="st4" points="182.1,161.8 184.5,160.8 183.9,161.8 184.5,162.7 	"/>
	<circle class="st5" cx="188.5" cy="161.8" r="2.3"/>
	<path class="st4" d="M188.5,159.8c1.1,0,2,0.9,2,2s-0.9,2-2,2s-2-0.9-2-2S187.4,159.8,188.5,159.8 M188.5,159.2
		c-1.4,0-2.6,1.2-2.6,2.6s1.2,2.6,2.6,2.6c1.4,0,2.6-1.2,2.6-2.6C191.1,160.3,189.9,159.2,188.5,159.2L188.5,159.2z"/>
	<line class="st9" x1="182.2" y1="166.8" x2="177.5" y2="166.8"/>
	<polygon class="st4" points="175.8,166.8 178.2,165.8 177.6,166.8 178.2,167.8 	"/>
	<circle class="st5" cx="182.2" cy="166.8" r="2.3"/>
	<path class="st4" d="M182.2,164.8c1.1,0,2,0.9,2,2s-0.9,2-2,2s-2-0.9-2-2S181.1,164.8,182.2,164.8 M182.2,164.2
		c-1.4,0-2.6,1.2-2.6,2.6c0,1.4,1.2,2.6,2.6,2.6c1.4,0,2.6-1.2,2.6-2.6C184.8,165.4,183.7,164.2,182.2,164.2
		C182.2,164.2,182.2,164.2,182.2,164.2L182.2,164.2z"/>
	<line class="st9" x1="197.1" y1="157.8" x2="192.4" y2="157.8"/>
	<polygon class="st4" points="190.7,157.8 193.1,156.8 192.6,157.8 193.1,158.7 	"/>
	<circle class="st5" cx="197.1" cy="157.8" r="2.3"/>
	<path class="st4" d="M197.1,155.8c1.1,0,2,0.9,2,2s-0.9,2-2,2s-2-0.9-2-2S196,155.8,197.1,155.8 M197.1,155.2
		c-1.4,0-2.6,1.2-2.6,2.6s1.2,2.6,2.6,2.6c1.4,0,2.6-1.2,2.6-2.6C199.7,156.3,198.6,155.2,197.1,155.2z"/>
	<line class="st9" x1="201.3" y1="174.6" x2="196.6" y2="174.6"/>
	<polygon class="st4" points="194.9,174.6 197.3,173.6 196.8,174.6 197.3,175.6 	"/>
	<circle class="st5" cx="201.3" cy="174.6" r="2.3"/>
	<path class="st4" d="M201.3,172.6c1.1,0,2,0.9,2,2s-0.9,2-2,2s-2-0.9-2-2S200.2,172.6,201.3,172.6 M201.3,172
		c-1.4,0-2.6,1.2-2.6,2.6s1.2,2.6,2.6,2.6c1.4,0,2.6-1.2,2.6-2.6C203.9,173.1,202.7,172,201.3,172z"/>
	<line class="st9" x1="189.7" y1="179.9" x2="185" y2="179.9"/>
	<polygon class="st4" points="183.3,179.9 185.7,178.9 185.1,179.9 185.7,180.9 	"/>
	<circle class="st5" cx="189.7" cy="179.9" r="2.3"/>
	<path class="st4" d="M189.7,177.9c1.1,0,2,0.9,2,2s-0.9,2-2,2s-2-0.9-2-2S188.6,177.9,189.7,177.9 M189.7,177.3
		c-1.4,0-2.6,1.2-2.6,2.6s1.2,2.6,2.6,2.6c1.4,0,2.6-1.2,2.6-2.6C192.3,178.5,191.1,177.3,189.7,177.3L189.7,177.3z"/>
	<line class="st9" x1="204.5" y1="163.1" x2="199.8" y2="163.1"/>
	<polygon class="st4" points="198.1,163.1 200.5,162.1 199.9,163.1 200.5,164.1 	"/>
	<circle class="st5" cx="204.5" cy="163.1" r="2.3"/>
	<path class="st4" d="M204.5,161.1c1.1,0,2,0.9,2,2s-0.9,2-2,2s-2-0.9-2-2S203.4,161.1,204.5,161.1 M204.5,160.5
		c-1.4,0-2.6,1.2-2.6,2.6s1.2,2.6,2.6,2.6c1.4,0,2.6-1.2,2.6-2.6C207.1,161.7,205.9,160.5,204.5,160.5L204.5,160.5z"/>
	<line class="st9" x1="210.9" y1="171.6" x2="206.2" y2="171.6"/>
	<polygon class="st4" points="204.5,171.6 206.9,170.7 206.3,171.6 206.9,172.6 	"/>
	<circle class="st5" cx="210.9" cy="171.6" r="2.3"/>
	<path class="st4" d="M210.9,169.6c1.1,0,2,0.9,2,2s-0.9,2-2,2s-2-0.9-2-2S209.8,169.6,210.9,169.6 M210.9,169
		c-1.4,0-2.6,1.2-2.6,2.6c0,1.4,1.2,2.6,2.6,2.6c1.4,0,2.6-1.2,2.6-2.6S212.3,169,210.9,169L210.9,169z"/>
	<line class="st9" x1="197.8" y1="168.6" x2="193.2" y2="168.6"/>
	<polygon class="st4" points="191.5,168.6 193.9,167.6 193.3,168.6 193.9,169.6 	"/>
	<path class="st5" d="M197.8,170.8c-1.3,0-2.3-1-2.3-2.3c0-1.3,1-2.3,2.3-2.3c1.3,0,2.3,1,2.3,2.3
		C200.1,169.8,199.1,170.8,197.8,170.8z"/>
	<path class="st4" d="M197.8,166.6c1.1,0,2,0.9,2,2s-0.9,2-2,2s-2-0.9-2-2S196.7,166.6,197.8,166.6 M197.8,166
		c-1.4,0-2.6,1.2-2.6,2.6s1.2,2.6,2.6,2.6c1.4,0,2.6-1.2,2.6-2.6C200.4,167.1,199.2,166,197.8,166z"/>
	<path d="M173,146.2c0-0.4,0.1-0.9,0.4-1.2c0.2-0.3,0.6-0.5,1-0.5c0.1,0,0.3,0,0.4,0.1c0.1,0.1,0.3,0.1,0.4,0.2
		c0.2,0.1,0.3,0.3,0.3,0.5c0.1,0.2,0.1,0.5,0.1,0.8v0.2h-2.2c0,0.3,0.1,0.6,0.3,0.9c0.2,0.2,0.5,0.3,0.7,0.3c0.4,0,0.8-0.2,1.1-0.4
		l0.1,0.5c-0.3,0.2-0.7,0.4-1.1,0.4c-0.4,0-0.9-0.2-1.1-0.5C173.1,147,173,146.6,173,146.2z M173.5,145.8h1.8c0-0.2-0.1-0.3-0.2-0.5
		c-0.1-0.1-0.2-0.2-0.3-0.3c-0.1,0-0.2-0.1-0.3-0.1c-0.1,0-0.1,0-0.2,0c-0.2,0-0.5,0.1-0.6,0.3C173.7,145.4,173.6,145.6,173.5,145.8
		L173.5,145.8z"/>
	<path d="M175.7,143.3v-0.5h2.6v0.5H175.7z"/>
	<path d="M182.5,147.8v-5.2h0.5v2.3c0.3-0.3,0.7-0.4,1.2-0.4c0.3,0,0.7,0.2,0.8,0.5c0.2,0.3,0.3,0.7,0.3,1.2c0,0.4-0.1,0.9-0.4,1.2
		c-0.2,0.3-0.6,0.5-0.9,0.5c-0.4,0-0.7-0.2-1-0.4v0.4H182.5z M183.1,146.8L183.1,146.8c0,0.1,0,0.1,0,0.1l0,0l0,0l0.1,0.1
		c0.1,0.2,0.4,0.3,0.6,0.3c0.3,0,0.5-0.1,0.7-0.3c0.2-0.3,0.3-0.6,0.3-0.9c0-0.2,0-0.4-0.1-0.6c-0.1-0.1-0.1-0.3-0.3-0.4
		c-0.1-0.1-0.2-0.1-0.3-0.2c-0.3-0.1-0.6-0.1-0.8,0.1c-0.1,0.1-0.2,0.2-0.2,0.4L183.1,146.8z"/>
	<path d="M186.2,146.9v-2.3h0.6v2.4c0,0.1,0,0.3,0.1,0.4c0.1,0.1,0.3,0.1,0.4,0.1c0.2,0,0.4-0.1,0.6-0.2c0.1-0.1,0.2-0.3,0.3-0.5
		c0-0.1,0-0.1,0-0.2v-2h0.6v3.2h-0.6v-0.3c-0.4,0.3-0.8,0.4-1.3,0.4c-0.1,0-0.2,0-0.4-0.1c-0.1,0-0.2-0.1-0.2-0.2
		c-0.1-0.1-0.1-0.2-0.1-0.2c0-0.1,0-0.2,0-0.2L186.2,146.9z"/>
	<path d="M189.9,147.8v-3.3h0.5v0.5c0.3-0.5,1-0.7,1.5-0.5c0.1,0,0.2,0.1,0.3,0.2c0.1,0.1,0.1,0.2,0.2,0.3c0,0.1,0.1,0.2,0.1,0.3
		c0,0.1,0,0.2,0,0.3v2.1h-0.6v-2.3c0-0.1,0-0.1-0.1-0.2c0-0.1-0.1-0.1-0.1-0.2c-0.1-0.1-0.1-0.1-0.2-0.1c-0.1,0-0.2-0.1-0.4-0.1
		c-0.2,0-0.5,0.1-0.6,0.3c-0.1,0.2-0.2,0.5-0.2,0.8v1.8H189.9z"/>
	<path d="M193.3,146.2c0-0.4,0.2-0.9,0.4-1.2c0.3-0.3,0.7-0.5,1.1-0.5c0.2,0,0.4,0,0.6,0.1c0.2,0.1,0.4,0.2,0.6,0.3l-0.1,0.5
		c-0.3-0.2-0.6-0.3-1-0.3c-0.3,0-0.6,0.1-0.8,0.4c-0.2,0.3-0.3,0.6-0.3,0.9c0,0.3,0.1,0.6,0.3,0.9c0.2,0.2,0.4,0.4,0.7,0.3
		c0.4,0,0.8-0.1,1.1-0.4v0.5c-0.3,0.2-0.8,0.4-1.2,0.4c-0.4,0-0.8-0.2-1.1-0.5C193.5,147.1,193.3,146.6,193.3,146.2z"/>
	<path d="M196.8,147.8v-5.2h0.5v2.4c0.2-0.3,0.6-0.5,1-0.5c0.2,0,0.3,0,0.5,0.1c0.1,0,0.2,0.1,0.3,0.2c0.1,0.1,0.1,0.2,0.1,0.3
		c0,0.1,0.1,0.2,0.1,0.3c0,0.1,0,0.2,0,0.3v2.1h-0.5v-2.3c0-0.1,0-0.1,0-0.2c0-0.1-0.1-0.1-0.1-0.2c-0.1-0.1-0.1-0.1-0.2-0.1
		c-0.1,0-0.2-0.1-0.3-0.1c-0.2,0-0.5,0.1-0.6,0.3c-0.1,0.2-0.2,0.5-0.2,0.8v1.8H196.8z"/>
	<line class="st10" x1="133" y1="162.6" x2="137.7" y2="162.6"/>
	<polygon class="st11" points="139.4,162.6 137,161.6 137.6,162.6 137,163.6 	"/>
	<circle class="st12" cx="133" cy="162.6" r="2.3"/>
	<path class="st11" d="M133,160.6c-1.1,0-2,0.9-2,2s0.9,2,2,2s2-0.9,2-2S134.1,160.6,133,160.6 M133,160c1.4,0,2.6,1.2,2.6,2.6
		c0,1.4-1.2,2.6-2.6,2.6c-1.4,0-2.6-1.2-2.6-2.6c0,0,0,0,0,0C130.4,161.1,131.6,160,133,160z"/>
	<line class="st10" x1="127.8" y1="170.6" x2="132.4" y2="170.6"/>
	<polygon class="st11" points="134.1,170.6 131.7,169.6 132.3,170.6 131.7,171.6 	"/>
	<circle class="st12" cx="127.8" cy="170.6" r="2.3"/>
	<path class="st11" d="M127.8,168.6c-1.1,0-2,0.9-2,2s0.9,2,2,2s2-0.9,2-2S128.9,168.6,127.8,168.6 M127.8,168
		c1.4,0,2.6,1.2,2.6,2.6c0,1.4-1.2,2.6-2.6,2.6c-1.4,0-2.6-1.2-2.6-2.6c0,0,0,0,0,0C125.2,169.1,126.3,168,127.8,168z"/>
	<line class="st10" x1="129.6" y1="178.2" x2="134.3" y2="178.2"/>
	<polygon class="st11" points="135.9,178.2 133.6,177.2 134.1,178.2 133.6,179.2 	"/>
	<circle class="st12" cx="129.6" cy="178.2" r="2.3"/>
	<path class="st11" d="M129.6,176.2c-1.1,0-2,0.9-2,2s0.9,2,2,2s2-0.9,2-2S130.7,176.2,129.6,176.2 M129.6,175.6
		c1.4,0,2.6,1.2,2.6,2.6c0,1.4-1.2,2.6-2.6,2.6s-2.6-1.2-2.6-2.6c0,0,0,0,0,0C127,176.8,128.1,175.6,129.6,175.6
		C129.6,175.6,129.6,175.6,129.6,175.6z"/>
	<line class="st10" x1="137.2" y1="173.6" x2="141.9" y2="173.6"/>
	<polygon class="st11" points="143.6,173.6 141.2,172.7 141.8,173.6 141.2,174.6 	"/>
	<circle class="st12" cx="137.2" cy="173.6" r="2.3"/>
	<path class="st11" d="M137.2,171.6c-1.1,0-2,0.9-2,2s0.9,2,2,2s2-0.9,2-2S138.3,171.6,137.2,171.6 M137.2,171
		c1.4,0,2.6,1.2,2.6,2.6s-1.2,2.6-2.6,2.6c-1.4,0-2.6-1.2-2.6-2.6c0,0,0,0,0,0C134.6,172.2,135.8,171,137.2,171z"/>
	<line class="st10" x1="124.6" y1="158.6" x2="129.3" y2="158.6"/>
	<polygon class="st11" points="130.9,158.6 128.6,157.6 129.1,158.6 128.6,159.6 	"/>
	<circle class="st12" cx="124.6" cy="158.6" r="2.3"/>
	<path class="st11" d="M124.6,156.6c-1.1,0-2,0.9-2,2s0.9,2,2,2s2-0.9,2-2S125.7,156.6,124.6,156.6 M124.6,156
		c1.4,0,2.6,1.2,2.6,2.6c0,1.4-1.2,2.6-2.6,2.6c-1.4,0-2.6-1.2-2.6-2.6c0,0,0,0,0,0C122,157.1,123.1,156,124.6,156z"/>
	<line class="st10" x1="120.2" y1="176.2" x2="124.9" y2="176.2"/>
	<polygon class="st11" points="126.6,176.2 124.2,175.2 124.7,176.2 124.2,177.2 	"/>
	<circle class="st12" cx="120.2" cy="176.2" r="2.3"/>
	<path class="st11" d="M120.2,174.2c-1.1,0-2,0.9-2,2s0.9,2,2,2s2-0.9,2-2S121.3,174.2,120.2,174.2 M120.2,173.6
		c1.4,0,2.6,1.2,2.6,2.6c0,1.4-1.2,2.6-2.6,2.6c-1.4,0-2.6-1.2-2.6-2.6c0,0,0,0,0,0C117.6,174.8,118.7,173.6,120.2,173.6
		C120.2,173.6,120.2,173.6,120.2,173.6z"/>
	<line class="st10" x1="111" y1="172.6" x2="115.7" y2="172.6"/>
	<polygon class="st11" points="117.4,172.6 115,171.6 115.6,172.6 115,173.6 	"/>
	<circle class="st12" cx="111" cy="172.6" r="2.3"/>
	<path class="st11" d="M111,170.6c-1.1,0-2,0.9-2,2s0.9,2,2,2s2-0.9,2-2S112.1,170.6,111,170.6 M111,170c1.4,0,2.6,1.2,2.6,2.6
		s-1.2,2.6-2.6,2.6c-1.4,0-2.6-1.2-2.6-2.6C108.4,171.1,109.6,170,111,170L111,170z"/>
	<line class="st10" x1="112" y1="161.8" x2="116.7" y2="161.8"/>
	<polygon class="st11" points="118.4,161.8 116,160.8 116.6,161.8 116,162.7 	"/>
	<circle class="st12" cx="112" cy="161.8" r="2.3"/>
	<path class="st11" d="M112,159.8c-1.1,0-2,0.9-2,2s0.9,2,2,2s2-0.9,2-2S113.1,159.8,112,159.8 M112,159.2c1.4,0,2.6,1.2,2.6,2.6
		c0,1.4-1.2,2.6-2.6,2.6c-1.4,0-2.6-1.2-2.6-2.6C109.4,160.3,110.6,159.2,112,159.2L112,159.2z"/>
	<line class="st10" x1="118.3" y1="166.8" x2="123" y2="166.8"/>
	<polygon class="st11" points="124.7,166.8 122.3,165.8 122.8,166.8 122.3,167.8 	"/>
	<circle class="st12" cx="118.3" cy="166.8" r="2.3"/>
	<path class="st11" d="M118.3,164.8c-1.1,0-2,0.9-2,2s0.9,2,2,2s2-0.9,2-2S119.4,164.8,118.3,164.8 M118.3,164.2
		c1.4,0,2.6,1.2,2.6,2.6c0,1.4-1.2,2.6-2.6,2.6c-1.4,0-2.6-1.2-2.6-2.6C115.7,165.4,116.8,164.2,118.3,164.2
		C118.2,164.2,118.3,164.2,118.3,164.2L118.3,164.2z"/>
	<line class="st13" x1="103.3" y1="157.8" x2="108" y2="157.8"/>
	<polygon class="st11" points="109.7,157.8 107.3,156.8 107.9,157.8 107.3,158.7 	"/>
	<circle class="st12" cx="103.3" cy="157.8" r="2.3"/>
	<path class="st11" d="M103.3,155.8c-1.1,0-2,0.9-2,2s0.9,2,2,2s2-0.9,2-2S104.5,155.8,103.3,155.8 M103.3,155.2
		c1.4,0,2.6,1.2,2.6,2.6s-1.2,2.6-2.6,2.6c-1.4,0-2.6-1.2-2.6-2.6C100.8,156.3,101.9,155.2,103.3,155.2z"/>
	<line class="st10" x1="99.2" y1="174.6" x2="103.8" y2="174.6"/>
	<polygon class="st11" points="105.5,174.6 103.1,173.6 103.7,174.6 103.1,175.6 	"/>
	<circle class="st12" cx="99.2" cy="174.6" r="2.3"/>
	<path class="st11" d="M99.2,172.6c-1.1,0-2,0.9-2,2s0.9,2,2,2s2-0.9,2-2S100.3,172.6,99.2,172.6 M99.2,172c1.4,0,2.6,1.2,2.6,2.6
		s-1.2,2.6-2.6,2.6c-1.4,0-2.6-1.2-2.6-2.6C96.6,173.1,97.7,172,99.2,172z"/>
	<line class="st10" x1="110.8" y1="179.9" x2="115.5" y2="179.9"/>
	<polygon class="st11" points="117.2,179.9 114.8,178.9 115.4,179.9 114.8,180.9 	"/>
	<circle class="st12" cx="110.8" cy="179.9" r="2.3"/>
	<path class="st11" d="M110.8,177.9c-1.1,0-2,0.9-2,2s0.9,2,2,2s2-0.9,2-2S111.9,177.9,110.8,177.9 M110.8,177.3
		c1.4,0,2.6,1.2,2.6,2.6s-1.2,2.6-2.6,2.6c-1.4,0-2.6-1.2-2.6-2.6C108.2,178.5,109.4,177.3,110.8,177.3L110.8,177.3z"/>
	<line class="st10" x1="96" y1="163.1" x2="100.6" y2="163.1"/>
	<polygon class="st11" points="102.3,163.1 100,162.1 100.5,163.1 100,164.1 	"/>
	<circle class="st12" cx="96" cy="163.1" r="2.3"/>
	<path class="st11" d="M96,161.1c-1.1,0-2,0.9-2,2s0.9,2,2,2s2-0.9,2-2S97.1,161.1,96,161.1 M96,160.5c1.4,0,2.6,1.2,2.6,2.6
		s-1.2,2.6-2.6,2.6c-1.4,0-2.6-1.2-2.6-2.6C93.4,161.7,94.5,160.5,96,160.5L96,160.5z"/>
	<line class="st10" x1="89.6" y1="171.6" x2="94.3" y2="171.6"/>
	<polygon class="st11" points="96,171.6 93.6,170.7 94.1,171.6 93.6,172.6 	"/>
	<circle class="st12" cx="89.6" cy="171.6" r="2.3"/>
	<path class="st11" d="M89.6,169.6c-1.1,0-2,0.9-2,2s0.9,2,2,2s2-0.9,2-2S90.7,169.6,89.6,169.6 M89.6,169c1.4,0,2.6,1.2,2.6,2.6
		c0,1.4-1.2,2.6-2.6,2.6c-1.4,0-2.6-1.2-2.6-2.6S88.2,169,89.6,169L89.6,169z"/>
	<line class="st10" x1="102.6" y1="168.6" x2="107.3" y2="168.6"/>
	<polygon class="st11" points="109,168.6 106.6,167.6 107.2,168.6 106.6,169.6 	"/>
	<path class="st12" d="M102.7,170.8c1.3,0,2.3-1,2.3-2.3c0-1.3-1-2.3-2.3-2.3c-1.3,0-2.3,1-2.3,2.3
		C100.4,169.8,101.4,170.8,102.7,170.8z"/>
	<path class="st11" d="M102.7,166.6c-1.1,0-2,0.9-2,2s0.9,2,2,2s2-0.9,2-2S103.8,166.6,102.7,166.6 M102.7,166
		c1.4,0,2.6,1.2,2.6,2.6s-1.2,2.6-2.6,2.6c-1.4,0-2.6-1.2-2.6-2.6C100.1,167.1,101.2,166,102.7,166z"/>
	<path d="M103.1,146.2c0-0.4,0.1-0.9,0.4-1.2c0.2-0.3,0.6-0.5,1-0.5c0.1,0,0.3,0,0.4,0.1c0.1,0.1,0.3,0.1,0.4,0.2
		c0.2,0.1,0.3,0.3,0.3,0.5c0.1,0.2,0.1,0.5,0.2,0.8v0.2h-2.2c0,0.3,0.1,0.6,0.3,0.9c0.2,0.2,0.5,0.3,0.7,0.3c0.4,0,0.8-0.2,1.1-0.4
		l0.1,0.5c-0.3,0.2-0.7,0.4-1.1,0.4c-0.4,0-0.9-0.2-1.1-0.5C103.2,147,103.1,146.6,103.1,146.2z M103.6,145.8h1.8
		c0-0.2-0.1-0.3-0.2-0.5c-0.1-0.1-0.2-0.2-0.3-0.3c-0.1,0-0.2-0.1-0.3-0.1c-0.1,0-0.1,0-0.2,0c-0.2,0-0.5,0.1-0.6,0.3
		C103.8,145.4,103.7,145.6,103.6,145.8L103.6,145.8z"/>
	<path d="M106.5,143.3v-0.5h2.6v0.5H106.5z"/>
	<path d="M107.6,141.8h0.5v2.6h-0.5V141.8z"/>
	<path d="M112.6,147.8v-5.2h0.5v2.3c0.3-0.3,0.7-0.4,1.2-0.4c0.3,0,0.7,0.2,0.8,0.5c0.2,0.3,0.3,0.7,0.3,1.2c0,0.4-0.1,0.9-0.4,1.2
		c-0.2,0.3-0.6,0.5-0.9,0.5c-0.4,0-0.7-0.2-1-0.4v0.4H112.6z M113.2,146.8L113.2,146.8c0,0.1,0,0.1,0,0.1l0,0l0,0l0.1,0.1
		c0.1,0.2,0.4,0.3,0.6,0.3c0.3,0,0.5-0.1,0.7-0.3c0.2-0.3,0.3-0.6,0.3-0.9c0-0.2,0-0.4-0.1-0.6c-0.1-0.1-0.1-0.3-0.3-0.4
		c-0.1-0.1-0.2-0.1-0.3-0.2c-0.3-0.1-0.6-0.1-0.8,0.1c-0.1,0.1-0.2,0.2-0.2,0.4L113.2,146.8z"/>
	<path d="M116.3,146.9v-2.3h0.6v2.4c0,0.1,0,0.3,0.1,0.4c0.1,0.1,0.3,0.1,0.4,0.1c0.2,0,0.4-0.1,0.6-0.2c0.1-0.1,0.2-0.3,0.3-0.5
		c0-0.1,0-0.1,0-0.2v-2h0.6v3.2h-0.6v-0.3c-0.4,0.3-0.8,0.4-1.3,0.4c-0.1,0-0.2,0-0.4-0.1c-0.1,0-0.2-0.1-0.2-0.2
		c-0.1-0.1-0.1-0.2-0.1-0.2c0-0.1,0-0.2,0-0.2L116.3,146.9z"/>
	<path d="M120.1,147.8v-3.3h0.5v0.5c0.3-0.5,1-0.7,1.5-0.5c0.1,0,0.2,0.1,0.3,0.2c0.1,0.1,0.1,0.2,0.2,0.3c0,0.1,0.1,0.2,0.1,0.3
		c0,0.1,0,0.2,0,0.3v2.1H122v-2.3c0-0.1,0-0.1-0.1-0.2c0-0.1-0.1-0.1-0.1-0.2c-0.1-0.1-0.1-0.1-0.2-0.1c-0.1,0-0.2-0.1-0.4-0.1
		c-0.2,0-0.5,0.1-0.6,0.3c-0.1,0.2-0.2,0.5-0.2,0.8v1.8H120.1z"/>
	<path d="M123.4,146.2c0-0.4,0.2-0.9,0.4-1.2c0.3-0.3,0.7-0.5,1.1-0.5c0.2,0,0.4,0,0.6,0.1c0.2,0.1,0.4,0.2,0.6,0.3l-0.1,0.5
		c-0.3-0.2-0.6-0.3-1-0.3c-0.3,0-0.6,0.1-0.8,0.4c-0.2,0.3-0.3,0.6-0.3,0.9c0,0.3,0.1,0.6,0.3,0.9c0.2,0.2,0.4,0.4,0.7,0.3
		c0.4,0,0.8-0.1,1.1-0.4v0.5c-0.3,0.2-0.8,0.4-1.2,0.4c-0.4,0-0.8-0.2-1.1-0.5C123.6,147.1,123.4,146.6,123.4,146.2z"/>
	<path d="M126.9,147.8v-5.2h0.5v2.4c0.2-0.3,0.6-0.5,1-0.5c0.2,0,0.3,0,0.5,0.1c0.1,0,0.2,0.1,0.3,0.2c0.1,0.1,0.1,0.2,0.1,0.3
		c0,0.1,0.1,0.2,0.1,0.3c0,0.1,0,0.2,0,0.3v2.1h-0.5v-2.3c0-0.1,0-0.1,0-0.2c0-0.1-0.1-0.1-0.1-0.2c-0.1-0.1-0.1-0.1-0.2-0.1
		c-0.1,0-0.2-0.1-0.3-0.1c-0.2,0-0.5,0.1-0.6,0.3c-0.1,0.2-0.2,0.5-0.2,0.8v1.8H126.9z"/>
</g>
<g>
	<path d="M89.7,120.4h-6.4V120c1,0,1.2-0.1,1.2-1.1v-5c0-0.9-0.2-1.1-1.2-1.1v-0.4h6.3l0.1,2h-0.4c-0.2-1.2-0.5-1.4-2-1.4h-1.8v3H87
		c1.1,0,1.3-0.2,1.3-1.2h0.4v2.8h-0.4c0-1-0.2-1.1-1.3-1.1h-1.4v3.3h1.5c1.9,0,2.1-0.3,2.5-1.7H90L89.7,120.4z"/>
	<path d="M93.5,120.4h-2.8V120c0.8,0,0.8-0.2,0.8-0.9v-6c0-0.5-0.2-0.5-0.5-0.5c-0.2,0-0.4,0-0.4,0v-0.3l1.6-0.4h0.3v7.3
		c0,0.7,0.1,0.9,0.9,0.9V120.4z"/>
	<path d="M99,118.8c-0.4,0.9-1,1.7-2.2,1.7c-1.4,0-2.6-1-2.6-3c0-2,1.1-3,2.5-3c1.3,0,2.2,0.9,2.2,2.6h-3.8c0,1.7,0.9,2.4,1.9,2.4
		c1,0,1.3-0.4,1.7-0.9L99,118.8z M97.8,116.8c0-0.9-0.4-1.7-1.3-1.7c-0.8,0-1.3,0.6-1.4,1.7H97.8z"/>
	<path d="M104.4,118.8c-0.5,1-1,1.7-2.3,1.7c-1.5,0-2.4-1.2-2.4-2.8c0-1.9,1-3.1,2.7-3.1c1.1,0,1.8,0.6,1.8,1.3
		c0,0.3-0.2,0.5-0.5,0.5c-0.9,0-0.5-1.4-1.5-1.4c-1,0-1.6,0.7-1.6,2.1c0,1.5,0.6,2.5,1.8,2.5c0.8,0,1.2-0.3,1.7-1L104.4,118.8z"/>
	<path d="M108.4,119.5c-0.5,0.6-0.7,1-1.5,1c-0.8,0-1.2-0.4-1.2-1.5v-3.8h-0.7v-0.3c0.6-0.3,0.9-0.9,1.4-1.9h0.3l0,1.6h1.4v0.5h-1.4
		v3.4c0,0.9,0.1,1.1,0.6,1.1c0.4,0,0.5-0.2,0.8-0.5L108.4,119.5z"/>
	<path d="M110.7,115.8L110.7,115.8c0.6-0.9,1-1.3,1.6-1.3c0.5,0,0.7,0.3,0.7,0.7c0,0.5-0.3,0.6-0.5,0.6c-0.4,0-0.6-0.4-0.8-0.4
		c-0.3,0-0.7,0.5-0.9,1v2.7c0,0.8,0.2,0.9,1.1,0.9v0.3h-3V120c0.8,0,0.9-0.1,0.9-0.8v-3.3c0-0.4,0-0.6-0.4-0.6c-0.2,0-0.4,0-0.4,0
		V115l1.5-0.4h0.3V115.8z"/>
	<path d="M118.7,117.4c0,2-1.1,3.1-2.7,3.1c-1.7,0-2.7-1.1-2.7-3c0-1.7,1.1-2.9,2.7-2.9C117.6,114.6,118.7,115.7,118.7,117.4z
		 M114.4,117.3c0,1.9,0.6,2.7,1.6,2.7c1,0,1.5-0.6,1.5-2.5c0-1.5-0.5-2.5-1.6-2.5C115,115,114.4,115.8,114.4,117.3z"/>
	<path d="M124.8,119.2c0,0.7,0.1,0.9,0.9,0.9v0.3H123v-0.3c0.9,0,0.9-0.2,0.9-0.9V117c0-1.4-0.6-1.7-1.1-1.7c-0.6,0-1.1,0.4-1.5,0.8
		v3.1c0,0.7,0,0.9,0.9,0.9v0.3h-2.7v-0.3c0.8,0,0.8-0.2,0.8-0.9v-3.4c0-0.4-0.2-0.5-0.5-0.5c-0.2,0-0.3,0-0.3,0V115l1.5-0.3h0.3l0,1
		h0c0.6-0.6,1.2-1,1.9-1c1.1,0,1.6,0.8,1.6,2.1V119.2z"/>
	<path d="M126.5,117.8V117h2.7v0.8H126.5z"/>
	<path d="M131.9,115.6L131.9,115.6c0.6-0.7,1.2-1,1.9-1c1.2,0,2,1.1,2,2.7c0,2-1.2,3.3-2.6,3.3c-0.5,0-0.9-0.1-1.2-0.3h0v1.6
		c0,0.8,0.2,0.9,1.2,0.9v0.3h-3v-0.3c0.8,0,0.9-0.2,0.9-0.9v-5.9c0-0.5-0.1-0.6-0.5-0.6c-0.2,0-0.4,0-0.4,0v-0.3l1.5-0.3h0.3V115.6z
		 M131.9,119.2c0.2,0.3,0.6,0.8,1.3,0.8c0.8,0,1.5-0.8,1.5-2.4c0-1.5-0.5-2.2-1.4-2.2c-0.6,0-1.2,0.4-1.4,0.7V119.2z"/>
	<path d="M142,117.4c0,2-1.1,3.1-2.7,3.1c-1.7,0-2.7-1.1-2.7-3c0-1.7,1.1-2.9,2.7-2.9C140.9,114.6,142,115.7,142,117.4z
		 M137.7,117.3c0,1.9,0.6,2.7,1.6,2.7c1,0,1.5-0.6,1.5-2.5c0-1.5-0.5-2.5-1.6-2.5C138.3,115,137.7,115.8,137.7,117.3z"/>
	<path d="M143.2,118.4c0.3,1.2,0.7,1.7,1.6,1.7c0.6,0,1-0.2,1-0.8s-0.2-0.8-1.3-1.3c-1.1-0.6-1.6-1-1.6-1.9c0-1,0.8-1.5,1.8-1.5
		c0.6,0,1,0.2,1.3,0.3h0l0.2-0.3h0.2l0,1.8h-0.3c-0.3-1.1-0.7-1.5-1.4-1.5c-0.6,0-1,0.3-1,0.8c0,0.5,0.4,0.8,1.4,1.3
		c1.1,0.6,1.7,1,1.7,1.9c0,1.1-0.9,1.6-2,1.6c-0.7,0-1.1-0.2-1.4-0.3h0l-0.3,0.3h-0.3l0-2.1H143.2z"/>
	<path d="M150.2,120.4h-2.7v-0.3c0.8,0,0.8-0.2,0.8-0.9v-3.3c0-0.5-0.2-0.6-0.5-0.6c-0.2,0-0.3,0-0.3,0v-0.3l1.5-0.3h0.3v4.6
		c0,0.7,0.1,0.9,0.9,0.9V120.4z M149.5,112.7c0,0.4-0.3,0.7-0.7,0.7c-0.4,0-0.7-0.3-0.7-0.7c0-0.4,0.3-0.7,0.7-0.7
		C149.3,112.1,149.5,112.4,149.5,112.7z"/>
	<path d="M154.3,119.5c-0.5,0.6-0.7,1-1.5,1c-0.8,0-1.2-0.4-1.2-1.5v-3.8H151v-0.3c0.6-0.3,0.9-0.9,1.4-1.9h0.3l0,1.6h1.4v0.5h-1.4
		v3.4c0,0.9,0.1,1.1,0.6,1.1c0.4,0,0.5-0.2,0.8-0.5L154.3,119.5z"/>
	<path d="M156.5,115.8L156.5,115.8c0.6-0.9,1-1.3,1.6-1.3c0.5,0,0.7,0.3,0.7,0.7c0,0.5-0.3,0.6-0.5,0.6c-0.4,0-0.6-0.4-0.8-0.4
		c-0.3,0-0.7,0.5-0.9,1v2.7c0,0.8,0.2,0.9,1.1,0.9v0.3h-3V120c0.8,0,0.9-0.1,0.9-0.8v-3.3c0-0.4,0-0.6-0.4-0.6c-0.2,0-0.4,0-0.4,0
		V115l1.5-0.4h0.3V115.8z"/>
	<path d="M164.5,117.4c0,2-1.1,3.1-2.7,3.1c-1.7,0-2.7-1.1-2.7-3c0-1.7,1.1-2.9,2.7-2.9C163.5,114.6,164.5,115.7,164.5,117.4z
		 M160.3,117.3c0,1.9,0.6,2.7,1.6,2.7c1,0,1.5-0.6,1.5-2.5c0-1.5-0.5-2.5-1.6-2.5C160.9,115,160.3,115.8,160.3,117.3z"/>
	<path d="M170.7,119.2c0,0.7,0.1,0.9,0.9,0.9v0.3h-2.8v-0.3c0.9,0,0.9-0.2,0.9-0.9V117c0-1.4-0.6-1.7-1.1-1.7
		c-0.6,0-1.1,0.4-1.5,0.8v3.1c0,0.7,0,0.9,0.9,0.9v0.3h-2.7v-0.3c0.8,0,0.8-0.2,0.8-0.9v-3.4c0-0.4-0.2-0.5-0.5-0.5
		c-0.2,0-0.3,0-0.3,0V115l1.5-0.3h0.3l0,1h0c0.6-0.6,1.2-1,1.9-1c1.1,0,1.6,0.8,1.6,2.1V119.2z"/>
	<path d="M179.8,118.8c-0.5,1-1,1.7-2.3,1.7c-1.5,0-2.4-1.2-2.4-2.8c0-1.9,1-3.1,2.7-3.1c1.1,0,1.8,0.6,1.8,1.3
		c0,0.3-0.2,0.5-0.5,0.5c-0.9,0-0.5-1.4-1.5-1.4c-1,0-1.6,0.7-1.6,2.1c0,1.5,0.6,2.5,1.8,2.5c0.8,0,1.2-0.3,1.7-1L179.8,118.8z"/>
	<path d="M185.8,117.4c0,2-1.1,3.1-2.7,3.1c-1.7,0-2.7-1.1-2.7-3c0-1.7,1.1-2.9,2.7-2.9C184.7,114.6,185.8,115.7,185.8,117.4z
		 M181.5,117.3c0,1.9,0.6,2.7,1.6,2.7c1,0,1.5-0.6,1.5-2.5c0-1.5-0.5-2.5-1.6-2.5C182.1,115,181.5,115.8,181.5,117.3z"/>
	<path d="M189.3,120.4h-2.8V120c0.8,0,0.8-0.2,0.8-0.9v-6c0-0.5-0.2-0.5-0.5-0.5c-0.2,0-0.4,0-0.4,0v-0.3l1.6-0.4h0.3v7.3
		c0,0.7,0.1,0.9,0.9,0.9V120.4z"/>
	<path d="M192.7,120.4h-2.8V120c0.8,0,0.8-0.2,0.8-0.9v-6c0-0.5-0.2-0.5-0.5-0.5c-0.2,0-0.4,0-0.4,0v-0.3l1.6-0.4h0.3v7.3
		c0,0.7,0.1,0.9,0.9,0.9V120.4z"/>
	<path d="M196,120.4h-2.7v-0.3c0.8,0,0.8-0.2,0.8-0.9v-3.3c0-0.5-0.2-0.6-0.5-0.6c-0.2,0-0.3,0-0.3,0v-0.3l1.5-0.3h0.3v4.6
		c0,0.7,0.1,0.9,0.9,0.9V120.4z M195.4,112.7c0,0.4-0.3,0.7-0.7,0.7c-0.4,0-0.7-0.3-0.7-0.7c0-0.4,0.3-0.7,0.7-0.7
		C195.1,112.1,195.4,112.4,195.4,112.7z"/>
	<path d="M197.2,118.4c0.3,1.2,0.7,1.7,1.6,1.7c0.6,0,1-0.2,1-0.8s-0.2-0.8-1.3-1.3c-1.1-0.6-1.6-1-1.6-1.9c0-1,0.8-1.5,1.8-1.5
		c0.6,0,1,0.2,1.3,0.3h0l0.2-0.3h0.2l0,1.8h-0.3c-0.3-1.1-0.7-1.5-1.4-1.5c-0.6,0-1,0.3-1,0.8c0,0.5,0.4,0.8,1.4,1.3
		c1.1,0.6,1.7,1,1.7,1.9c0,1.1-0.9,1.6-2,1.6c-0.7,0-1.1-0.2-1.4-0.3h0l-0.3,0.3h-0.3l0-2.1H197.2z"/>
	<path d="M204.2,120.4h-2.7v-0.3c0.8,0,0.8-0.2,0.8-0.9v-3.3c0-0.5-0.2-0.6-0.5-0.6c-0.2,0-0.3,0-0.3,0v-0.3l1.5-0.3h0.3v4.6
		c0,0.7,0.1,0.9,0.9,0.9V120.4z M203.5,112.7c0,0.4-0.3,0.7-0.7,0.7c-0.4,0-0.7-0.3-0.7-0.7c0-0.4,0.3-0.7,0.7-0.7
		S203.5,112.4,203.5,112.7z"/>
	<path d="M210.3,117.4c0,2-1.1,3.1-2.7,3.1c-1.7,0-2.7-1.1-2.7-3c0-1.7,1.1-2.9,2.7-2.9C209.3,114.6,210.3,115.7,210.3,117.4z
		 M206.1,117.3c0,1.9,0.6,2.7,1.6,2.7c1,0,1.5-0.6,1.5-2.5c0-1.5-0.5-2.5-1.6-2.5C206.7,115,206.1,115.8,206.1,117.3z"/>
	<path d="M216.5,119.2c0,0.7,0.1,0.9,0.9,0.9v0.3h-2.8v-0.3c0.9,0,0.9-0.2,0.9-0.9V117c0-1.4-0.6-1.7-1.1-1.7
		c-0.6,0-1.1,0.4-1.5,0.8v3.1c0,0.7,0,0.9,0.9,0.9v0.3h-2.7v-0.3c0.8,0,0.8-0.2,0.8-0.9v-3.4c0-0.4-0.2-0.5-0.5-0.5
		c-0.2,0-0.3,0-0.3,0V115l1.5-0.3h0.3l0,1h0c0.6-0.6,1.2-1,1.9-1c1.1,0,1.6,0.8,1.6,2.1V119.2z"/>
</g>
<g>
	<path d="M11.4,12.1H5v-0.4c1,0,1.2-0.1,1.2-1.1v-5C6.1,4.8,6,4.6,5,4.6V4.2h6.3l0.1,2H11C10.8,5,10.5,4.7,9,4.7H7.3v3h1.4
		c1.1,0,1.3-0.2,1.3-1.2h0.4v2.8H10c0-1-0.2-1.1-1.3-1.1H7.3v3.3h1.5c1.9,0,2.1-0.3,2.5-1.7h0.4L11.4,12.1z"/>
	<path d="M15.2,12.1h-2.8v-0.3c0.8,0,0.8-0.2,0.8-0.9v-6c0-0.5-0.2-0.5-0.5-0.5c-0.2,0-0.4,0-0.4,0V4L14,3.6h0.3v7.3
		c0,0.7,0.1,0.9,0.9,0.9V12.1z"/>
	<path d="M20.7,10.5c-0.4,0.9-1,1.7-2.2,1.7c-1.4,0-2.6-1-2.6-3c0-2,1.1-3,2.5-3c1.3,0,2.2,0.9,2.2,2.6h-3.8c0,1.7,0.9,2.4,1.9,2.4
		c1,0,1.3-0.4,1.7-0.9L20.7,10.5z M19.5,8.5c0-0.9-0.4-1.7-1.3-1.7c-0.8,0-1.3,0.6-1.4,1.7H19.5z"/>
	<path d="M26.1,10.5c-0.5,1-1,1.7-2.3,1.7c-1.5,0-2.4-1.2-2.4-2.8c0-1.9,1-3.1,2.7-3.1c1.1,0,1.8,0.6,1.8,1.3c0,0.3-0.2,0.5-0.5,0.5
		c-0.9,0-0.5-1.4-1.5-1.4c-1,0-1.6,0.7-1.6,2.1c0,1.5,0.6,2.5,1.8,2.5c0.8,0,1.2-0.3,1.7-1L26.1,10.5z"/>
	<path d="M30.1,11.2c-0.5,0.6-0.7,1-1.5,1c-0.8,0-1.2-0.4-1.2-1.5V6.9h-0.7V6.6c0.6-0.3,0.9-0.9,1.4-1.9h0.3l0,1.6h1.4v0.5h-1.4v3.4
		c0,0.9,0.1,1.1,0.6,1.1c0.4,0,0.5-0.2,0.8-0.5L30.1,11.2z"/>
	<path d="M32.4,7.5L32.4,7.5c0.6-0.9,1-1.3,1.6-1.3c0.5,0,0.7,0.3,0.7,0.7c0,0.5-0.3,0.6-0.5,0.6c-0.4,0-0.6-0.4-0.8-0.4
		c-0.3,0-0.7,0.5-0.9,1v2.7c0,0.8,0.2,0.9,1.1,0.9v0.3h-3v-0.3c0.8,0,0.9-0.1,0.9-0.8V7.6c0-0.4,0-0.6-0.4-0.6c-0.2,0-0.4,0-0.4,0
		V6.7l1.5-0.4h0.3V7.5z"/>
	<path d="M40.4,9.1c0,2-1.1,3.1-2.7,3.1c-1.7,0-2.7-1.1-2.7-3c0-1.7,1.1-2.9,2.7-2.9C39.3,6.3,40.4,7.4,40.4,9.1z M36.1,9
		c0,1.9,0.6,2.7,1.6,2.7c1,0,1.5-0.6,1.5-2.5c0-1.5-0.5-2.5-1.6-2.5C36.7,6.7,36.1,7.5,36.1,9z"/>
	<path d="M46.5,10.9c0,0.7,0.1,0.9,0.9,0.9v0.3h-2.8v-0.3c0.9,0,0.9-0.2,0.9-0.9V8.7C45.5,7.3,45,7,44.4,7c-0.6,0-1.1,0.4-1.5,0.8
		v3.1c0,0.7,0,0.9,0.9,0.9v0.3h-2.7v-0.3c0.8,0,0.8-0.2,0.8-0.9V7.5C42,7.1,41.8,7,41.5,7c-0.2,0-0.3,0-0.3,0V6.7l1.5-0.3H43l0,1h0
		c0.6-0.6,1.2-1,1.9-1c1.1,0,1.6,0.8,1.6,2.1V10.9z"/>
	<path d="M48.2,9.5V8.7h2.7v0.8H48.2z"/>
	<path d="M57.9,12.1H52v-0.4c1,0,1.1-0.2,1.1-1.1V5.7c0-0.9-0.1-1.2-1.1-1.2V4.2h3.4v0.4c-1,0-1.2,0.2-1.2,1.2v5.2
		c0,0.5,0.2,0.6,0.9,0.6h0.6c1.6,0,1.8-0.4,2.3-1.8h0.4L57.9,12.1z"/>
	<path d="M62.1,11.3c-0.6,0.5-1,0.8-1.8,0.8c-0.9,0-1.4-0.6-1.4-1.3c0-1.6,2.1-1.9,3.2-2.2V8.1c0-1-0.4-1.4-1.1-1.4
		c-0.7,0-0.8,0.3-0.8,1c0,0.4-0.2,0.6-0.5,0.6c-0.2,0-0.5-0.2-0.5-0.6c0-0.7,0.8-1.3,2.1-1.3c1.3,0,1.8,0.6,1.8,1.8v2.7
		c0,0.5,0.1,0.6,0.4,0.6c0.2,0,0.4-0.1,0.6-0.3l0.2,0.2c-0.4,0.6-0.7,0.8-1.3,0.8C62.4,12.1,62.2,11.9,62.1,11.3L62.1,11.3z M62.1,9
		C61,9.3,60,9.6,60,10.5c0,0.6,0.3,1,0.9,1c0.4,0,0.8-0.2,1.2-0.5V9z"/>
	<path d="M65,10.1c0.3,1.2,0.7,1.7,1.6,1.7c0.6,0,1-0.2,1-0.8s-0.2-0.8-1.3-1.3c-1.1-0.6-1.6-1-1.6-1.9c0-1,0.8-1.5,1.8-1.5
		c0.6,0,1,0.2,1.3,0.3h0L68,6.3h0.2l0,1.8H68c-0.3-1.1-0.7-1.5-1.4-1.5c-0.6,0-1,0.3-1,0.8c0,0.5,0.4,0.8,1.4,1.3
		c1.1,0.6,1.7,1,1.7,1.9c0,1.1-0.9,1.6-2,1.6c-0.7,0-1.1-0.2-1.4-0.3h0L65,12.2h-0.3l0-2.1H65z"/>
	<path d="M74.2,10.5c-0.4,0.9-1,1.7-2.2,1.7c-1.4,0-2.6-1-2.6-3c0-2,1.1-3,2.5-3c1.3,0,2.2,0.9,2.2,2.6h-3.8c0,1.7,0.9,2.4,1.9,2.4
		c1,0,1.3-0.4,1.7-0.9L74.2,10.5z M73,8.5c0-0.9-0.4-1.7-1.3-1.7c-0.8,0-1.3,0.6-1.4,1.7H73z"/>
	<path d="M76.7,7.5L76.7,7.5c0.6-0.9,1-1.3,1.6-1.3c0.5,0,0.7,0.3,0.7,0.7c0,0.5-0.3,0.6-0.5,0.6c-0.4,0-0.6-0.4-0.8-0.4
		c-0.3,0-0.7,0.5-0.9,1v2.7c0,0.8,0.2,0.9,1.1,0.9v0.3h-3v-0.3c0.8,0,0.9-0.1,0.9-0.8V7.6c0-0.4,0-0.6-0.4-0.6C75.1,7,75,7,75,7V6.7
		l1.5-0.4h0.3V7.5z"/>
	<path d="M85,12.1h-2.7v-0.3c0.8,0,0.8-0.2,0.8-0.9V7.5C83.1,7,83,7,82.6,7c-0.2,0-0.3,0-0.3,0V6.6l1.5-0.3h0.3v4.6
		c0,0.7,0.1,0.9,0.9,0.9V12.1z M84.3,4.4c0,0.4-0.3,0.7-0.7,0.7c-0.4,0-0.7-0.3-0.7-0.7c0-0.4,0.3-0.7,0.7-0.7
		C84.1,3.8,84.3,4.1,84.3,4.4z"/>
	<path d="M91.1,10.9c0,0.7,0.1,0.9,0.9,0.9v0.3h-2.8v-0.3c0.9,0,0.9-0.2,0.9-0.9V8.7C90.1,7.3,89.6,7,89,7c-0.6,0-1.1,0.4-1.5,0.8
		v3.1c0,0.7,0,0.9,0.9,0.9v0.3h-2.7v-0.3c0.8,0,0.8-0.2,0.8-0.9V7.5c0-0.4-0.2-0.5-0.5-0.5c-0.2,0-0.3,0-0.3,0V6.7l1.5-0.3h0.3l0,1
		h0c0.6-0.6,1.2-1,1.9-1c1.1,0,1.6,0.8,1.6,2.1V10.9z"/>
	<path d="M96,11.2c-0.5,0.6-0.7,1-1.5,1c-0.8,0-1.2-0.4-1.2-1.5V6.9h-0.7V6.6c0.6-0.3,0.9-0.9,1.4-1.9h0.3l0,1.6h1.4v0.5h-1.4v3.4
		c0,0.9,0.1,1.1,0.6,1.1c0.4,0,0.5-0.2,0.8-0.5L96,11.2z"/>
	<path d="M101.2,10.5c-0.4,0.9-1,1.7-2.2,1.7c-1.4,0-2.6-1-2.6-3c0-2,1.1-3,2.5-3c1.3,0,2.2,0.9,2.2,2.6h-3.8c0,1.7,0.9,2.4,1.9,2.4
		c1,0,1.3-0.4,1.7-0.9L101.2,10.5z M100,8.5c0-0.9-0.4-1.7-1.3-1.7c-0.8,0-1.3,0.6-1.4,1.7H100z"/>
	<path d="M103.7,7.5L103.7,7.5c0.6-0.9,1-1.3,1.6-1.3c0.5,0,0.7,0.3,0.7,0.7c0,0.5-0.3,0.6-0.5,0.6c-0.4,0-0.6-0.4-0.8-0.4
		c-0.3,0-0.7,0.5-0.9,1v2.7c0,0.8,0.2,0.9,1.1,0.9v0.3h-3v-0.3c0.8,0,0.9-0.1,0.9-0.8V7.6c0-0.4,0-0.6-0.4-0.6c-0.2,0-0.4,0-0.4,0
		V6.7l1.5-0.4h0.3V7.5z"/>
	<path d="M109.6,11.3c-0.6,0.5-1,0.8-1.8,0.8c-0.9,0-1.4-0.6-1.4-1.3c0-1.6,2.1-1.9,3.2-2.2V8.1c0-1-0.4-1.4-1.1-1.4
		c-0.7,0-0.8,0.3-0.8,1c0,0.4-0.2,0.6-0.5,0.6c-0.2,0-0.5-0.2-0.5-0.6c0-0.7,0.8-1.3,2.1-1.3c1.3,0,1.8,0.6,1.8,1.8v2.7
		c0,0.5,0.1,0.6,0.4,0.6c0.2,0,0.4-0.1,0.6-0.3l0.2,0.2c-0.4,0.6-0.7,0.8-1.3,0.8C109.8,12.1,109.7,11.9,109.6,11.3L109.6,11.3z
		 M109.5,9c-1.1,0.3-2.1,0.6-2.1,1.5c0,0.6,0.3,1,0.9,1c0.4,0,0.8-0.2,1.2-0.5V9z"/>
	<path d="M116.8,10.5c-0.5,1-1,1.7-2.3,1.7c-1.5,0-2.4-1.2-2.4-2.8c0-1.9,1-3.1,2.7-3.1c1.1,0,1.8,0.6,1.8,1.3
		c0,0.3-0.2,0.5-0.5,0.5c-0.9,0-0.5-1.4-1.5-1.4c-1,0-1.6,0.7-1.6,2.1c0,1.5,0.6,2.5,1.8,2.5c0.8,0,1.2-0.3,1.7-1L116.8,10.5z"/>
	<path d="M120.8,11.2c-0.5,0.6-0.7,1-1.5,1c-0.8,0-1.2-0.4-1.2-1.5V6.9h-0.7V6.6c0.6-0.3,0.9-0.9,1.4-1.9h0.3l0,1.6h1.4v0.5h-1.4
		v3.4c0,0.9,0.1,1.1,0.6,1.1c0.4,0,0.5-0.2,0.8-0.5L120.8,11.2z"/>
	<path d="M123.9,12.1h-2.7v-0.3c0.8,0,0.8-0.2,0.8-0.9V7.5c0-0.5-0.2-0.6-0.5-0.6c-0.2,0-0.3,0-0.3,0V6.6l1.5-0.3h0.3v4.6
		c0,0.7,0.1,0.9,0.9,0.9V12.1z M123.2,4.4c0,0.4-0.3,0.7-0.7,0.7c-0.4,0-0.7-0.3-0.7-0.7c0-0.4,0.3-0.7,0.7-0.7
		C123,3.8,123.2,4.1,123.2,4.4z"/>
	<path d="M130,9.1c0,2-1.1,3.1-2.7,3.1c-1.7,0-2.7-1.1-2.7-3c0-1.7,1.1-2.9,2.7-2.9C129,6.3,130,7.4,130,9.1z M125.8,9
		c0,1.9,0.6,2.7,1.6,2.7c1,0,1.5-0.6,1.5-2.5c0-1.5-0.5-2.5-1.6-2.5C126.4,6.7,125.8,7.5,125.8,9z"/>
	<path d="M136.2,10.9c0,0.7,0.1,0.9,0.9,0.9v0.3h-2.8v-0.3c0.9,0,0.9-0.2,0.9-0.9V8.7c0-1.4-0.6-1.7-1.1-1.7c-0.6,0-1.1,0.4-1.5,0.8
		v3.1c0,0.7,0,0.9,0.9,0.9v0.3h-2.7v-0.3c0.8,0,0.8-0.2,0.8-0.9V7.5c0-0.4-0.2-0.5-0.5-0.5c-0.2,0-0.3,0-0.3,0V6.7l1.5-0.3h0.3l0,1
		h0c0.6-0.6,1.2-1,1.9-1c1.1,0,1.6,0.8,1.6,2.1V10.9z"/>
</g>
<g>
	<path d="M173.4,12.1h-5.9v-0.4c1,0,1.1-0.2,1.1-1.1V5.7c0-0.9-0.1-1.2-1.1-1.2V4.2h3.4v0.4c-1,0-1.2,0.2-1.2,1.2v5.2
		c0,0.5,0.2,0.6,0.9,0.6h0.6c1.6,0,1.8-0.4,2.3-1.8h0.4L173.4,12.1z"/>
	<path d="M177,12.1h-2.7v-0.3c0.8,0,0.8-0.2,0.8-0.9V7.5c0-0.5-0.2-0.6-0.5-0.6c-0.2,0-0.3,0-0.3,0V6.6l1.5-0.3h0.3v4.6
		c0,0.7,0.1,0.9,0.9,0.9V12.1z M176.4,4.4c0,0.4-0.3,0.7-0.7,0.7c-0.4,0-0.7-0.3-0.7-0.7c0-0.4,0.3-0.7,0.7-0.7S176.4,4.1,176.4,4.4
		z"/>
	<path d="M178.9,9.9C178.3,9.5,178,9,178,8.2c0-1.2,0.9-2,2.2-2c0.8,0,1.3,0.3,1.3,0.3l1.5-0.1v0.6l-1.1,0v0.1
		c0.2,0.2,0.4,0.6,0.4,1.2c0,1.1-0.9,1.8-2.1,1.8c-0.4,0-0.7-0.1-1-0.2c-0.1,0.2-0.3,0.6-0.3,0.8c0,0.4,0.3,0.5,1.4,0.5
		c1.5,0,2.7,0,2.7,1.4c0,1.6-1.8,2.2-3.3,2.2c-1.6,0-2-0.7-2-1.3c0-0.4,0.3-0.8,1-1.4v0c-0.4-0.2-0.7-0.5-0.7-0.9
		C177.9,10.8,178.3,10.3,178.9,9.9L178.9,9.9z M178.6,13.2c0,0.7,0.6,1,1.8,1c1.4,0,2-0.6,2-1.1c0-0.9-1.3-0.8-2.1-0.9
		c-1,0-1.2,0-1.4,0C178.6,12.7,178.6,12.9,178.6,13.2z M179,8.2c0,1,0.4,1.6,1.2,1.6c0.6,0,1-0.3,1-1.5c0-1-0.4-1.6-1.2-1.6
		C179.4,6.7,179,7.2,179,8.2z"/>
	<path d="M185.4,10.9c0,0.6,0.1,0.8,0.9,0.8v0.3h-2.7v-0.3c0.6,0,0.8-0.1,0.8-0.8V4.8c0-0.4-0.3-0.5-0.6-0.5c-0.2,0-0.3,0-0.3,0V4
		l1.6-0.4h0.3v3.6h0c0.8-0.7,1.3-1,1.9-1c1.4,0,1.6,1.2,1.6,2.2v2.4c0,0.6,0.1,0.9,0.9,0.9v0.3h-2.8v-0.3c0.8,0,0.9-0.2,0.9-0.8V8.8
		c0-1-0.1-1.8-1.1-1.8c-0.5,0-0.9,0.2-1.5,0.7V10.9z"/>
	<path d="M193.8,11.2c-0.5,0.6-0.7,1-1.5,1c-0.8,0-1.2-0.4-1.2-1.5V6.9h-0.7V6.6c0.6-0.3,0.9-0.9,1.4-1.9h0.3l0,1.6h1.4v0.5h-1.4
		v3.4c0,0.9,0.1,1.1,0.6,1.1c0.4,0,0.5-0.2,0.8-0.5L193.8,11.2z"/>
	<path d="M194.1,9.5V8.7h2.7v0.8H194.1z"/>
	<path d="M199.3,7.3L199.3,7.3c0.5-0.5,1.1-1,1.9-1c1.2,0,2,1.1,2,2.7c0,2.1-1.2,3.3-2.9,3.3c-1,0-1.7-0.3-2-0.5V5
		c0-0.5-0.1-0.6-0.5-0.6c-0.2,0-0.3,0-0.3,0V4l1.5-0.4h0.3V7.3z M199.3,11.2c0.2,0.3,0.6,0.6,1.2,0.6c1.1,0,1.6-1.1,1.6-2.4
		c0-1.2-0.3-2.2-1.4-2.2c-0.6,0-1.1,0.4-1.4,0.7V11.2z"/>
	<path d="M209.5,6.8c-0.5,0-0.7,0.2-0.8,0.7l-1.9,4.9c-0.7,1.8-1.3,2.4-2.2,2.4c-0.5,0-0.9-0.2-0.9-0.6c0-0.4,0.2-0.5,0.6-0.5
		c0.4,0,0.7,0.3,1,0.3c0.4,0,1.1-1.5,1.1-1.8c0-0.2-0.2-0.7-0.4-1l-1.8-3.9c-0.1-0.3-0.3-0.4-0.7-0.4V6.4h2.6v0.4
		c-0.5,0-0.7,0.1-0.7,0.3c0,0.1,0.1,0.3,0.2,0.5l1.2,2.6l0.2,0.6h0.1l1.2-3.5c0-0.1,0.1-0.2,0.1-0.3c0-0.2-0.3-0.3-0.7-0.3V6.4h2
		V6.8z"/>
	<path d="M209.7,9.5V8.7h2.7v0.8H209.7z"/>
	<path d="M219.4,12.1h-5.9v-0.4c1,0,1.1-0.2,1.1-1.1V5.7c0-0.9-0.1-1.2-1.1-1.2V4.2h3.4v0.4c-1,0-1.2,0.2-1.2,1.2v5.2
		c0,0.5,0.2,0.6,0.9,0.6h0.6c1.6,0,1.8-0.4,2.3-1.8h0.4L219.4,12.1z"/>
	<path d="M223.1,12.1h-2.7v-0.3c0.8,0,0.8-0.2,0.8-0.9V7.5c0-0.5-0.2-0.6-0.5-0.6c-0.2,0-0.3,0-0.3,0V6.6l1.5-0.3h0.3v4.6
		c0,0.7,0.1,0.9,0.9,0.9V12.1z M222.4,4.4c0,0.4-0.3,0.7-0.7,0.7c-0.4,0-0.7-0.3-0.7-0.7c0-0.4,0.3-0.7,0.7-0.7
		C222.1,3.8,222.4,4.1,222.4,4.4z"/>
	<path d="M224.9,9.9C224.4,9.5,224,9,224,8.2c0-1.2,0.9-2,2.2-2c0.8,0,1.3,0.3,1.3,0.3l1.5-0.1v0.6l-1.1,0v0.1
		c0.2,0.2,0.4,0.6,0.4,1.2c0,1.1-0.9,1.8-2.1,1.8c-0.4,0-0.7-0.1-1-0.2c-0.1,0.2-0.3,0.6-0.3,0.8c0,0.4,0.3,0.5,1.4,0.5
		c1.5,0,2.7,0,2.7,1.4c0,1.6-1.8,2.2-3.3,2.2c-1.6,0-2-0.7-2-1.3c0-0.4,0.3-0.8,1-1.4v0c-0.4-0.2-0.7-0.5-0.7-0.9
		C223.9,10.8,224.4,10.3,224.9,9.9L224.9,9.9z M224.6,13.2c0,0.7,0.6,1,1.8,1c1.4,0,2-0.6,2-1.1c0-0.9-1.3-0.8-2.1-0.9
		c-1,0-1.2,0-1.4,0C224.7,12.7,224.6,12.9,224.6,13.2z M225.1,8.2c0,1,0.4,1.6,1.2,1.6c0.6,0,1-0.3,1-1.5c0-1-0.4-1.6-1.2-1.6
		C225.5,6.7,225.1,7.2,225.1,8.2z"/>
	<path d="M231.4,10.9c0,0.6,0.1,0.8,0.9,0.8v0.3h-2.7v-0.3c0.6,0,0.8-0.1,0.8-0.8V4.8c0-0.4-0.3-0.5-0.6-0.5c-0.2,0-0.3,0-0.3,0V4
		l1.6-0.4h0.3v3.6h0c0.8-0.7,1.3-1,1.9-1c1.4,0,1.6,1.2,1.6,2.2v2.4c0,0.6,0.1,0.9,0.9,0.9v0.3h-2.8v-0.3c0.8,0,0.9-0.2,0.9-0.8V8.8
		c0-1-0.1-1.8-1.1-1.8c-0.5,0-0.9,0.2-1.5,0.7V10.9z"/>
	<path d="M239.9,11.2c-0.5,0.6-0.7,1-1.5,1c-0.8,0-1.2-0.4-1.2-1.5V6.9h-0.7V6.6c0.6-0.3,0.9-0.9,1.4-1.9h0.3l0,1.6h1.4v0.5h-1.4
		v3.4c0,0.9,0.1,1.1,0.6,1.1c0.4,0,0.5-0.2,0.8-0.5L239.9,11.2z"/>
	<path d="M243.5,10.1c0.3,1.2,0.7,1.7,1.6,1.7c0.6,0,1-0.2,1-0.8s-0.2-0.8-1.3-1.3c-1.1-0.6-1.6-1-1.6-1.9c0-1,0.8-1.5,1.8-1.5
		c0.6,0,1,0.2,1.3,0.3h0l0.2-0.3h0.2l0,1.8h-0.3c-0.3-1.1-0.7-1.5-1.4-1.5c-0.6,0-1,0.3-1,0.8c0,0.5,0.4,0.8,1.4,1.3
		c1.1,0.6,1.7,1,1.7,1.9c0,1.1-0.9,1.6-2,1.6c-0.7,0-1.1-0.2-1.4-0.3h0l-0.3,0.3h-0.3l0-2.1H243.5z"/>
	<path d="M252.6,10.5c-0.5,1-1,1.7-2.3,1.7c-1.5,0-2.4-1.2-2.4-2.8c0-1.9,1-3.1,2.7-3.1c1.1,0,1.8,0.6,1.8,1.3
		c0,0.3-0.2,0.5-0.5,0.5c-0.9,0-0.5-1.4-1.5-1.4c-1,0-1.6,0.7-1.6,2.1c0,1.5,0.6,2.5,1.8,2.5c0.8,0,1.2-0.3,1.7-1L252.6,10.5z"/>
	<path d="M256.5,11.3c-0.6,0.5-1,0.8-1.8,0.8c-0.9,0-1.4-0.6-1.4-1.3c0-1.6,2.1-1.9,3.2-2.2V8.1c0-1-0.4-1.4-1.1-1.4
		c-0.7,0-0.8,0.3-0.8,1c0,0.4-0.2,0.6-0.5,0.6c-0.2,0-0.5-0.2-0.5-0.6c0-0.7,0.8-1.3,2.1-1.3s1.8,0.6,1.8,1.8v2.7
		c0,0.5,0.1,0.6,0.4,0.6c0.2,0,0.4-0.1,0.6-0.3l0.2,0.2c-0.4,0.6-0.7,0.8-1.3,0.8C256.7,12.1,256.6,11.9,256.5,11.3L256.5,11.3z
		 M256.4,9c-1.1,0.3-2.1,0.6-2.1,1.5c0,0.6,0.3,1,0.9,1c0.4,0,0.8-0.2,1.2-0.5V9z"/>
	<path d="M262.3,11.2c-0.5,0.6-0.7,1-1.5,1c-0.8,0-1.2-0.4-1.2-1.5V6.9H259V6.6c0.6-0.3,0.9-0.9,1.4-1.9h0.3l0,1.6h1.4v0.5h-1.4v3.4
		c0,0.9,0.1,1.1,0.6,1.1c0.4,0,0.5-0.2,0.8-0.5L262.3,11.2z"/>
	<path d="M265.9,11.2c-0.5,0.6-0.7,1-1.5,1c-0.8,0-1.2-0.4-1.2-1.5V6.9h-0.7V6.6c0.6-0.3,0.9-0.9,1.4-1.9h0.3l0,1.6h1.4v0.5h-1.4
		v3.4c0,0.9,0.1,1.1,0.6,1.1c0.4,0,0.5-0.2,0.8-0.5L265.9,11.2z"/>
	<path d="M271.1,10.5c-0.4,0.9-1,1.7-2.2,1.7c-1.4,0-2.6-1-2.6-3c0-2,1.1-3,2.5-3c1.3,0,2.2,0.9,2.2,2.6h-3.8c0,1.7,0.9,2.4,1.9,2.4
		c1,0,1.3-0.4,1.7-0.9L271.1,10.5z M269.9,8.5c0-0.9-0.4-1.7-1.3-1.7c-0.8,0-1.3,0.6-1.4,1.7H269.9z"/>
	<path d="M273.7,7.5L273.7,7.5c0.6-0.9,1-1.3,1.6-1.3c0.5,0,0.7,0.3,0.7,0.7c0,0.5-0.3,0.6-0.5,0.6c-0.4,0-0.6-0.4-0.8-0.4
		c-0.3,0-0.7,0.5-0.9,1v2.7c0,0.8,0.2,0.9,1.1,0.9v0.3h-3v-0.3c0.8,0,0.9-0.1,0.9-0.8V7.6c0-0.4,0-0.6-0.4-0.6c-0.2,0-0.4,0-0.4,0
		V6.7l1.5-0.4h0.3V7.5z"/>
	<path d="M279.1,12.1h-2.7v-0.3c0.8,0,0.8-0.2,0.8-0.9V7.5c0-0.5-0.2-0.6-0.5-0.6c-0.2,0-0.3,0-0.3,0V6.6l1.5-0.3h0.3v4.6
		c0,0.7,0.1,0.9,0.9,0.9V12.1z M278.4,4.4c0,0.4-0.3,0.7-0.7,0.7c-0.4,0-0.7-0.3-0.7-0.7c0-0.4,0.3-0.7,0.7-0.7
		C278.2,3.8,278.4,4.1,278.4,4.4z"/>
	<path d="M285.2,10.9c0,0.7,0.1,0.9,0.9,0.9v0.3h-2.8v-0.3c0.9,0,0.9-0.2,0.9-0.9V8.7c0-1.4-0.6-1.7-1.1-1.7c-0.6,0-1.1,0.4-1.5,0.8
		v3.1c0,0.7,0,0.9,0.9,0.9v0.3h-2.7v-0.3c0.8,0,0.8-0.2,0.8-0.9V7.5c0-0.4-0.2-0.5-0.5-0.5c-0.2,0-0.3,0-0.3,0V6.7l1.5-0.3h0.3l0,1
		h0c0.6-0.6,1.2-1,1.9-1c1.1,0,1.6,0.8,1.6,2.1V10.9z"/>
	<path d="M287.9,9.9C287.3,9.5,287,9,287,8.2c0-1.2,0.9-2,2.2-2c0.8,0,1.3,0.3,1.3,0.3l1.5-0.1v0.6l-1.1,0v0.1
		c0.2,0.2,0.4,0.6,0.4,1.2c0,1.1-0.9,1.8-2.1,1.8c-0.4,0-0.7-0.1-1-0.2c-0.1,0.2-0.3,0.6-0.3,0.8c0,0.4,0.3,0.5,1.4,0.5
		c1.5,0,2.7,0,2.7,1.4c0,1.6-1.8,2.2-3.3,2.2c-1.6,0-2-0.7-2-1.3c0-0.4,0.3-0.8,1-1.4v0c-0.4-0.2-0.7-0.5-0.7-0.9
		C286.9,10.8,287.3,10.3,287.9,9.9L287.9,9.9z M287.5,13.2c0,0.7,0.6,1,1.8,1c1.4,0,2-0.6,2-1.1c0-0.9-1.3-0.8-2.1-0.9
		c-1,0-1.2,0-1.4,0C287.6,12.7,287.5,12.9,287.5,13.2z M288,8.2c0,1,0.4,1.6,1.2,1.6c0.6,0,1-0.3,1-1.5c0-1-0.4-1.6-1.2-1.6
		C288.4,6.7,288,7.2,288,8.2z"/>
</g>
</svg>
