<svg xmlns="http://www.w3.org/2000/svg" viewBox="0 0 154.67 82.74"><defs><style>.cls-1,.cls-3{fill:none;stroke-miterlimit:10;}.cls-1{stroke:#f4602c;stroke-width:1.5px;}.cls-2{fill:#f4602c;}.cls-3{stroke:#0c772a;stroke-width:0.6px;}.cls-4{fill:#0c772a;}.cls-5{fill:#3ad836;}</style></defs><title>s-type</title><g id="Layer_2" data-name="Layer 2"><g id="Layer_1-2" data-name="Layer 1"><path class="cls-1" d="M75,47H68.5c-4,0-3,11.9-4.74,12-1.26,0-1.47-24.6-3.18-27.29S58.73,66.8,56.71,69.08s-2.09-47.42-4.32-49.21-2.29,57.2-4.67,58.5c-1.5.81-2.89-64.27-4.92-64.28S39.64,82,37.5,82s-3.24-67.9-5.3-67.9-3.42,65.09-4.92,64.28c-2.38-1.3-2.39-60.18-4.67-58.5s-2.23,51.39-4.32,49.21-2-40.09-3.87-37.42S12.5,59,11.24,59C9.5,58.89,10.5,47,6.5,47H0"/><polygon class="cls-2" points="85.59 46.99 70.67 40.89 74.21 46.99 70.67 53.08 85.59 46.99"/><line class="cls-3" x1="108.62" y1="40.74" x2="103.94" y2="40.74"/><polygon class="cls-4" points="102.24 40.74 104.63 39.77 104.06 40.74 104.63 41.72 102.24 40.74"/><circle class="cls-5" cx="108.62" cy="40.74" r="2.3"/><path class="cls-4" d="M108.62,38.74a2,2,0,1,1-2,2,2,2,0,0,1,2-2m0-.6a2.6,2.6,0,1,0,2.6,2.6,2.61,2.61,0,0,0-2.6-2.6Z"/><line class="cls-3" x1="113.9" y1="48.74" x2="109.22" y2="48.74"/><polygon class="cls-4" points="107.52 48.74 109.91 47.76 109.34 48.74 109.91 49.72 107.52 48.74"/><circle class="cls-5" cx="113.9" cy="48.74" r="2.3"/><path class="cls-4" d="M113.9,46.74a2,2,0,1,1-2,2,2,2,0,0,1,2-2m0-.6a2.6,2.6,0,1,0,2.6,2.6,2.61,2.61,0,0,0-2.6-2.6Z"/><line class="cls-3" x1="112.09" y1="56.38" x2="107.4" y2="56.38"/><polygon class="cls-4" points="105.71 56.38 108.1 55.4 107.53 56.38 108.1 57.35 105.71 56.38"/><circle class="cls-5" cx="112.09" cy="56.38" r="2.3"/><path class="cls-4" d="M112.09,54.38a2,2,0,1,1-2,2,2,2,0,0,1,2-2m0-.6a2.6,2.6,0,1,0,2.6,2.6,2.59,2.59,0,0,0-2.6-2.6Z"/><line class="cls-3" x1="104.43" y1="51.79" x2="99.75" y2="51.79"/><polygon class="cls-4" points="98.05 51.79 100.44 50.82 99.88 51.79 100.44 52.77 98.05 51.79"/><circle class="cls-5" cx="104.43" cy="51.79" r="2.3"/><path class="cls-4" d="M104.43,49.79a2,2,0,1,1-2,2,2,2,0,0,1,2-2m0-.6a2.6,2.6,0,1,0,2.6,2.6,2.61,2.61,0,0,0-2.6-2.6Z"/><line class="cls-3" x1="117.09" y1="36.74" x2="112.4" y2="36.74"/><polygon class="cls-4" points="110.71 36.74 113.1 35.77 112.53 36.74 113.1 37.72 110.71 36.74"/><circle class="cls-5" cx="117.09" cy="36.74" r="2.3"/><path class="cls-4" d="M117.09,34.74a2,2,0,1,1-2,2,2,2,0,0,1,2-2m0-.6a2.6,2.6,0,1,0,2.6,2.6,2.6,2.6,0,0,0-2.6-2.6Z"/><line class="cls-3" x1="121.47" y1="54.38" x2="116.78" y2="54.38"/><polygon class="cls-4" points="115.09 54.38 117.48 53.4 116.91 54.38 117.48 55.35 115.09 54.38"/><circle class="cls-5" cx="121.47" cy="54.38" r="2.3"/><path class="cls-4" d="M121.47,52.38a2,2,0,1,1-2,2,2,2,0,0,1,2-2m0-.6a2.6,2.6,0,1,0,2.6,2.6,2.59,2.59,0,0,0-2.6-2.6Z"/><line class="cls-3" x1="130.66" y1="50.74" x2="125.97" y2="50.74"/><polygon class="cls-4" points="124.28 50.74 126.67 49.77 126.1 50.74 126.67 51.72 124.28 50.74"/><circle class="cls-5" cx="130.66" cy="50.74" r="2.3"/><path class="cls-4" d="M130.66,48.74a2,2,0,1,1-2,2,2,2,0,0,1,2-2m0-.6a2.6,2.6,0,1,0,2.6,2.6,2.6,2.6,0,0,0-2.6-2.6Z"/><line class="cls-3" x1="129.66" y1="39.92" x2="124.97" y2="39.92"/><polygon class="cls-4" points="123.28 39.92 125.67 38.95 125.1 39.92 125.67 40.9 123.28 39.92"/><circle class="cls-5" cx="129.66" cy="39.92" r="2.3"/><path class="cls-4" d="M129.66,37.92a2,2,0,1,1-2,2,2,2,0,0,1,2-2m0-.6a2.6,2.6,0,1,0,2.6,2.6,2.6,2.6,0,0,0-2.6-2.6Z"/><line class="cls-3" x1="123.37" y1="44.98" x2="118.68" y2="44.98"/><polygon class="cls-4" points="116.99 44.98 119.38 44 118.81 44.98 119.38 45.95 116.99 44.98"/><circle class="cls-5" cx="123.37" cy="44.98" r="2.3"/><path class="cls-4" d="M123.37,43a2,2,0,1,1-2,2,2,2,0,0,1,2-2m0-.6A2.6,2.6,0,1,0,126,45a2.59,2.59,0,0,0-2.6-2.6Z"/><line class="cls-3" x1="138.31" y1="35.92" x2="133.63" y2="35.92"/><polygon class="cls-4" points="131.93 35.92 134.32 34.95 133.75 35.92 134.32 36.9 131.93 35.92"/><circle class="cls-5" cx="138.31" cy="35.92" r="2.3"/><path class="cls-4" d="M138.31,33.92a2,2,0,1,1-2,2,2,2,0,0,1,2-2m0-.6a2.6,2.6,0,1,0,2.6,2.6,2.61,2.61,0,0,0-2.6-2.6Z"/><line class="cls-3" x1="142.5" y1="52.74" x2="137.82" y2="52.74"/><polygon class="cls-4" points="136.12 52.74 138.51 51.77 137.94 52.74 138.51 53.72 136.12 52.74"/><circle class="cls-5" cx="142.5" cy="52.74" r="2.3"/><path class="cls-4" d="M142.5,50.74a2,2,0,1,1-2,2,2,2,0,0,1,2-2m0-.6a2.6,2.6,0,1,0,2.6,2.6,2.61,2.61,0,0,0-2.6-2.6Z"/><line class="cls-3" x1="130.85" y1="58.05" x2="126.16" y2="58.05"/><polygon class="cls-4" points="124.47 58.05 126.86 57.08 126.29 58.05 126.86 59.03 124.47 58.05"/><circle class="cls-5" cx="130.84" cy="58.05" r="2.3"/><path class="cls-4" d="M130.85,56.05a2,2,0,1,1-2,2,2,2,0,0,1,2-2m0-.6a2.6,2.6,0,1,0,2.6,2.6,2.6,2.6,0,0,0-2.6-2.6Z"/><line class="cls-3" x1="145.69" y1="41.27" x2="141.01" y2="41.27"/><polygon class="cls-4" points="139.31 41.27 141.7 40.29 141.13 41.27 141.7 42.24 139.31 41.27"/><circle class="cls-5" cx="145.69" cy="41.27" r="2.3"/><path class="cls-4" d="M145.69,39.27a2,2,0,1,1-2,2,2,2,0,0,1,2-2m0-.6a2.6,2.6,0,1,0,2.6,2.6,2.6,2.6,0,0,0-2.6-2.6Z"/><line class="cls-3" x1="152.07" y1="49.79" x2="147.38" y2="49.79"/><polygon class="cls-4" points="145.69 49.79 148.08 48.82 147.51 49.79 148.08 50.77 145.69 49.79"/><circle class="cls-5" cx="152.07" cy="49.79" r="2.3"/><path class="cls-4" d="M152.07,47.79a2,2,0,1,1-2,2,2,2,0,0,1,2-2m0-.6a2.6,2.6,0,1,0,2.6,2.6,2.6,2.6,0,0,0-2.6-2.6Z"/><line class="cls-3" x1="139.03" y1="46.74" x2="134.35" y2="46.74"/><polygon class="cls-4" points="132.66 46.74 135.04 45.76 134.48 46.74 135.04 47.72 132.66 46.74"/><path class="cls-5" d="M139,49a2.3,2.3,0,1,1,2.3-2.3A2.31,2.31,0,0,1,139,49Z"/><path class="cls-4" d="M139,44.74a2,2,0,1,1-2,2,2,2,0,0,1,2-2m0-.6a2.6,2.6,0,1,0,2.6,2.6,2.61,2.61,0,0,0-2.6-2.6Z"/><path d="M31.45,5.2V0H32V5.2Z"/><path d="M32.9,4.39a.65.65,0,0,1,.2-.47,1.18,1.18,0,0,1,.53-.29,3.71,3.71,0,0,1,.64-.15,4.21,4.21,0,0,1,.62,0V3.19a1.11,1.11,0,0,0-.18-.66.57.57,0,0,0-.46-.22,1.9,1.9,0,0,0-1.08.37l0-.48a2.23,2.23,0,0,1,1.13-.32,1.13,1.13,0,0,1,.83.33,1.14,1.14,0,0,1,.36.79V5.2h-.54V5L34.78,5a2.57,2.57,0,0,1-1.07.24A.71.71,0,0,1,33.1,5,1.1,1.1,0,0,1,32.9,4.39Zm.52,0a.39.39,0,0,0,.19.33.78.78,0,0,0,.48.13,1.12,1.12,0,0,0,.55-.13.47.47,0,0,0,.25-.45V3.79l-.45,0L34,3.91a1,1,0,0,0-.39.18A.35.35,0,0,0,33.42,4.37Z"/><path d="M36.23,5l.09-.49.09.06.12.06.13.07.16.07.18,0,.21,0h.23A.75.75,0,0,0,38,4.68a.47.47,0,0,0,.16-.34A.42.42,0,0,0,38,4a.72.72,0,0,0-.28-.16l-.32-.07L37,3.72a1.29,1.29,0,0,1-.52-.32.77.77,0,0,1-.22-.57.81.81,0,0,1,0-.31.88.88,0,0,1,.16-.3A.78.78,0,0,1,36.86,2a1.7,1.7,0,0,1,.59-.09,2.71,2.71,0,0,1,1,.22l-.08.48-.08,0-.09,0-.07,0-.1,0-.09,0-.1,0-.1,0-.13,0h-.27a.66.66,0,0,0-.47.14.42.42,0,0,0-.14.3A.37.37,0,0,0,37,3.1a1.84,1.84,0,0,0,.54.16,1.93,1.93,0,0,1,.49.13,1.14,1.14,0,0,1,.44.35.85.85,0,0,1,.18.55,1.13,1.13,0,0,1,0,.32,1,1,0,0,1-.17.32.83.83,0,0,1-.36.25,1.52,1.52,0,0,1-.59.1A2.56,2.56,0,0,1,36.23,5Z"/><path d="M39,3.57a1.8,1.8,0,0,1,.43-1.2,1.32,1.32,0,0,1,1-.49A1.1,1.1,0,0,1,40.9,2a1.51,1.51,0,0,1,.4.23,1.06,1.06,0,0,1,.32.47,2.31,2.31,0,0,1,.16.76v.2H39.54a1.39,1.39,0,0,0,.33.88,1,1,0,0,0,.74.34,1.87,1.87,0,0,0,1.09-.39l0,.47a2,2,0,0,1-1.14.37,1.43,1.43,0,0,1-1.13-.51A1.8,1.8,0,0,1,39,3.57Zm.54-.36h1.78a1.3,1.3,0,0,0-.15-.47.79.79,0,0,0-.5-.38l-.22,0a.75.75,0,0,0-.6.28A1.33,1.33,0,0,0,39.58,3.21Z"/><path d="M42.57,5.2V2h.51V2.6a1.26,1.26,0,0,1,.21-.26,1.59,1.59,0,0,1,.41-.27,1.67,1.67,0,0,1,.64-.15V2.4a1.27,1.27,0,0,0-.38.07,1.73,1.73,0,0,0-.39.19.91.91,0,0,0-.33.41,1.44,1.44,0,0,0-.13.64V5.2Z"/><path d="M114.16,24.33a1.72,1.72,0,0,1,.43-1.2,1.32,1.32,0,0,1,1-.49,1.14,1.14,0,0,1,.41.07,1.29,1.29,0,0,1,.39.22,1.08,1.08,0,0,1,.33.48,2.08,2.08,0,0,1,.15.75v.21h-2.23a1.39,1.39,0,0,0,.33.88,1,1,0,0,0,.74.34,1.81,1.81,0,0,0,1.09-.4l.05.48a2.17,2.17,0,0,1-1.14.37,1.42,1.42,0,0,1-1.13-.51A1.8,1.8,0,0,1,114.16,24.33Zm.54-.36h1.78a1.44,1.44,0,0,0-.15-.47.79.79,0,0,0-.26-.28,1.06,1.06,0,0,0-.25-.11.76.76,0,0,0-.21,0,.78.78,0,0,0-.6.28A1.32,1.32,0,0,0,114.7,24Z"/><path d="M117.6,21.51v-.46h2.6v.46Z"/><path d="M123.69,26v-5.2h.53V23.1a1.84,1.84,0,0,1,1.16-.42,1,1,0,0,1,.84.5,2,2,0,0,1,.33,1.16,1.8,1.8,0,0,1-.4,1.21,1.15,1.15,0,0,1-.94.49,1.39,1.39,0,0,1-1-.42V26Zm.56-1v.08a.14.14,0,0,0,0,.07.08.08,0,0,0,0,0s0,0,0,0l.05.06a.71.71,0,0,0,.59.29,1,1,0,0,0,.71-.3,1.24,1.24,0,0,0,.32-.94,1.78,1.78,0,0,0-.09-.59.93.93,0,0,0-.25-.38,1.18,1.18,0,0,0-.31-.19.93.93,0,0,0-.85.1.45.45,0,0,0-.24.37Z"/><path d="M127.4,25.08V22.75H128v2.42a.55.55,0,0,0,.12.36.66.66,0,0,0,.45.11.93.93,0,0,0,.61-.2.71.71,0,0,0,.25-.46,1.22,1.22,0,0,0,0-.21v-2H130V26h-.55v-.34a1.84,1.84,0,0,1-1.26.42,1,1,0,0,1-.36-.07.71.71,0,0,1-.23-.16.67.67,0,0,1-.12-.24,1.48,1.48,0,0,1,0-.24Z"/><path d="M131.12,26V22.72h.52v.51a1.3,1.3,0,0,1,1.51-.47.73.73,0,0,1,.29.19.86.86,0,0,1,.16.3,2.22,2.22,0,0,1,.07.31,3.11,3.11,0,0,1,0,.32V26h-.56V23.75a1.49,1.49,0,0,0-.05-.21.51.51,0,0,0-.1-.21.7.7,0,0,0-.21-.14.91.91,0,0,0-.35-.06.59.59,0,0,0-.56.32,1.67,1.67,0,0,0-.17.78V26Z"/><path d="M134.51,24.35a1.83,1.83,0,0,1,.44-1.19,1.41,1.41,0,0,1,1.15-.52,2.23,2.23,0,0,1,.56.06,3.5,3.5,0,0,1,.56.25l-.09.48a1.48,1.48,0,0,0-1-.33.87.87,0,0,0-.75.37,1.45,1.45,0,0,0-.26.88,1.33,1.33,0,0,0,.28.88.9.9,0,0,0,.73.35,2,2,0,0,0,1.13-.39l0,.48a2.27,2.27,0,0,1-1.17.37,1.45,1.45,0,0,1-1.11-.5A1.66,1.66,0,0,1,134.51,24.35Z"/><path d="M138,26v-5.2h.54V23.2a1.34,1.34,0,0,1,1-.52,1.13,1.13,0,0,1,.47.09.65.65,0,0,1,.29.2,1.05,1.05,0,0,1,.15.3,1.82,1.82,0,0,1,.07.31c0,.09,0,.19,0,.3V26H140V23.75a1.23,1.23,0,0,0,0-.21.52.52,0,0,0-.11-.21.51.51,0,0,0-.21-.14.86.86,0,0,0-.34-.06.58.58,0,0,0-.56.32,1.55,1.55,0,0,0-.17.78V26Z"/></g></g></svg>