<?xml version="1.0" encoding="utf-8"?>
<!-- Generator: Adobe Illustrator 23.1.0, SVG Export Plug-In . SVG Version: 6.00 Build 0)  -->
<svg version="1.1" id="Layer_1" xmlns="http://www.w3.org/2000/svg" xmlns:xlink="http://www.w3.org/1999/xlink" x="0px" y="0px"
	 viewBox="0 0 29.84 30.55" style="enable-background:new 0 0 29.84 30.55;" xml:space="preserve">
<style type="text/css">
	.st0{fill:#CDEBFB;stroke:#000000;stroke-width:0.125;stroke-miterlimit:10;}
	.st1{fill:#68102B;}
	.st2{fill:none;stroke:#000000;stroke-width:0.25;stroke-miterlimit:10;}
	.st3{fill:none;stroke:#68102B;stroke-width:0.1;stroke-linecap:round;stroke-miterlimit:10;}
	.st4{fill:none;stroke:#114C60;stroke-width:0.1;stroke-linecap:round;stroke-miterlimit:10;}
	.st5{fill:#114C60;}
	.st6{fill:#0E4C60;}
	.st7{fill:none;stroke:#114C60;stroke-width:0.125;stroke-miterlimit:10;}
	.st8{fill:#FFFFFF;}
	.st9{fill:none;stroke:#68102B;stroke-width:0.25;stroke-linecap:round;stroke-miterlimit:10;}
	.st10{fill:none;stroke:#0E4C60;stroke-width:0.25;stroke-linecap:round;stroke-miterlimit:10;}
</style>
<polygon class="st0" points="22.78,21.37 2.87,29.59 2.87,8.95 22.78,0.74 "/>
<g>
	<path class="st1" d="M25.98,26.43h0.16c0.02,0.14,0.04,0.22,0.06,0.24c0.02,0.03,0.08,0.05,0.16,0.06c0.02,0,0.04,0,0.08,0h0.19
		c-0.04-0.08-0.09-0.17-0.16-0.26s-0.14-0.18-0.19-0.25c-0.06-0.07-0.11-0.16-0.16-0.25c-0.05-0.1-0.08-0.2-0.08-0.3
		c0-0.08,0.02-0.16,0.05-0.24c0.04-0.08,0.09-0.15,0.17-0.23c0.08-0.08,0.19-0.14,0.34-0.18s0.33-0.07,0.53-0.07
		c0.16,0,0.31,0.02,0.44,0.05c0.13,0.03,0.24,0.07,0.32,0.12c0.08,0.05,0.15,0.11,0.2,0.17s0.09,0.13,0.11,0.19
		c0.02,0.06,0.03,0.12,0.03,0.19c0,0.1-0.02,0.2-0.07,0.3s-0.1,0.18-0.16,0.25c-0.06,0.07-0.13,0.15-0.2,0.25s-0.13,0.18-0.17,0.26
		h0.17c0.14,0,0.23-0.01,0.25-0.04s0.05-0.1,0.07-0.22c0-0.02,0-0.03,0.01-0.04h0.15l-0.11,0.6h-0.62c-0.03,0-0.05-0.01-0.06-0.02
		c-0.01-0.01-0.02-0.03-0.02-0.07c0-0.13,0.05-0.34,0.16-0.63c0.1-0.29,0.16-0.51,0.16-0.65c0-0.11-0.02-0.21-0.06-0.3
		c-0.04-0.08-0.09-0.15-0.16-0.19c-0.07-0.04-0.13-0.07-0.2-0.09s-0.14-0.03-0.22-0.03c-0.08,0-0.15,0.01-0.22,0.03
		s-0.14,0.05-0.2,0.09c-0.07,0.04-0.12,0.1-0.16,0.19s-0.06,0.18-0.06,0.3c0,0.14,0.05,0.36,0.16,0.65c0.1,0.29,0.15,0.5,0.15,0.63
		c0,0.03,0,0.05-0.01,0.06c-0.01,0.01-0.03,0.02-0.06,0.02H26.1L25.98,26.43z"/>
</g>
<g>
	<g>
		<line class="st2" x1="7.74" y1="19.73" x2="18.05" y2="15.19"/>
		<g>
			<polygon points="17.94,15.79 19.47,14.57 17.53,14.86 			"/>
		</g>
	</g>
</g>
<g>
	<g>
		<line class="st3" x1="19.14" y1="14.42" x2="14.47" y2="12.33"/>
		<g>
			<polygon class="st1" points="19.08,14.15 19.07,14.39 18.9,14.55 19.47,14.57 			"/>
		</g>
	</g>
</g>
<g>
	<g>
		<line class="st4" x1="14.23" y1="12.59" x2="7.74" y2="19.73"/>
		<g>
			<polygon class="st5" points="13.95,12.57 14.18,12.65 14.28,12.87 14.47,12.33 			"/>
		</g>
	</g>
</g>
<g>
	<path class="st6" d="M12.66,7.86V7.72h0.32V5.96h-0.32V5.82h1.86l0.09,0.72h-0.14c-0.01-0.08-0.02-0.15-0.03-0.2
		c-0.01-0.05-0.03-0.11-0.06-0.16c-0.03-0.05-0.06-0.09-0.1-0.12c-0.04-0.03-0.1-0.05-0.17-0.07s-0.15-0.03-0.24-0.03h-0.46v0.77
		h0.17c0.13,0,0.22-0.03,0.26-0.08c0.04-0.05,0.06-0.14,0.06-0.27h0.14v0.84H13.9c0-0.13-0.02-0.22-0.06-0.27
		c-0.04-0.05-0.13-0.08-0.26-0.08h-0.17v0.85h0.46c0.09,0,0.17-0.01,0.24-0.02c0.07-0.01,0.13-0.04,0.18-0.07
		c0.05-0.03,0.09-0.06,0.12-0.1c0.03-0.04,0.06-0.08,0.08-0.14s0.04-0.11,0.05-0.16c0.01-0.05,0.02-0.12,0.04-0.19h0.14l-0.14,0.82
		H12.66z"/>
	<path class="st6" d="M15.11,7.82c-0.03-0.03-0.04-0.07-0.04-0.11s0.01-0.08,0.04-0.11c0.03-0.03,0.07-0.05,0.12-0.05
		c0.06,0,0.11,0.03,0.14,0.09c0.03,0.06,0.05,0.13,0.05,0.23c0,0.1-0.02,0.2-0.06,0.3c-0.04,0.1-0.08,0.17-0.12,0.21
		s-0.07,0.07-0.09,0.07c-0.02,0-0.03-0.01-0.03-0.03c0-0.01,0.01-0.02,0.02-0.03c0.14-0.15,0.22-0.33,0.22-0.52
		c0-0.03,0-0.05-0.01-0.05l-0.01,0.01c-0.03,0.03-0.07,0.04-0.11,0.04C15.18,7.86,15.14,7.85,15.11,7.82z"/>
	<path class="st6" d="M16.75,7.86V7.72h0.33V5.95h-0.33V5.81h1.3c0.23,0,0.42,0.05,0.55,0.15s0.2,0.22,0.2,0.37
		c0,0.12-0.05,0.22-0.14,0.3s-0.22,0.14-0.38,0.17c0.18,0.01,0.33,0.07,0.44,0.16c0.12,0.09,0.17,0.21,0.17,0.35
		c0,0.16-0.07,0.29-0.2,0.4c-0.13,0.11-0.32,0.16-0.55,0.16H16.75z M17.47,6.74h0.47c0.14,0,0.25-0.04,0.32-0.12
		c0.08-0.08,0.11-0.18,0.11-0.3c0-0.04-0.01-0.08-0.02-0.12s-0.03-0.08-0.05-0.12s-0.06-0.07-0.11-0.1
		c-0.05-0.03-0.11-0.04-0.18-0.04h-0.55V6.74z M17.47,7.72h0.55c0.07,0,0.13-0.01,0.18-0.03c0.05-0.02,0.09-0.04,0.12-0.08
		s0.05-0.06,0.07-0.09s0.03-0.06,0.04-0.1s0.01-0.06,0.01-0.08c0-0.02,0-0.03,0-0.04c0-0.13-0.03-0.24-0.1-0.33
		c-0.07-0.09-0.17-0.13-0.3-0.13h-0.58V7.72z"/>
</g>
<g>
	<path d="M18.64,15.77v-0.14c0.02,0,0.07,0,0.16,0s0.15,0,0.18,0c0.15,0,0.27,0,0.37-0.01v0.14h-0.16l0.38,0.82l0.35-0.75
		c0.01-0.02,0.01-0.03,0.01-0.04c0-0.02-0.04-0.03-0.13-0.03c0,0-0.01,0-0.01,0v-0.14c0.13,0.01,0.22,0.01,0.27,0.01
		c0.08,0,0.16,0,0.24-0.01v0.14c-0.09,0-0.14,0-0.17,0.01c-0.03,0.01-0.04,0.03-0.05,0.05l-0.5,1.07c-0.02,0.05-0.06,0.07-0.11,0.07
		s-0.09-0.02-0.11-0.07l-0.53-1.13H18.64z"/>
</g>
<g>
	<path class="st1" d="M16.82,12.09c0,0,0-0.02,0.01-0.04s0.02-0.06,0.04-0.1s0.04-0.08,0.06-0.11c0.02-0.04,0.05-0.07,0.09-0.09
		c0.04-0.03,0.08-0.04,0.12-0.04c0.06,0,0.1,0.02,0.14,0.05s0.05,0.09,0.05,0.15c0,0.03-0.01,0.07-0.03,0.12
		c-0.1,0.26-0.15,0.44-0.15,0.54c0,0.05,0.01,0.1,0.04,0.14s0.07,0.06,0.13,0.06c0.07,0,0.13-0.03,0.18-0.1s0.1-0.14,0.13-0.23
		c0.03-0.09,0.05-0.16,0.07-0.23c0.02-0.07,0.02-0.12,0.02-0.14c0-0.08-0.02-0.15-0.07-0.2c-0.02-0.02-0.03-0.05-0.03-0.07
		c0-0.03,0.01-0.05,0.04-0.08c0.03-0.02,0.05-0.04,0.08-0.04c0.04,0,0.06,0.02,0.08,0.05c0.02,0.03,0.02,0.07,0.02,0.12
		c0,0.02,0,0.06-0.02,0.13c-0.01,0.06-0.03,0.14-0.05,0.24c-0.03,0.1-0.06,0.19-0.09,0.28s-0.09,0.16-0.15,0.23
		c-0.06,0.06-0.14,0.1-0.22,0.1c-0.08,0-0.16-0.02-0.22-0.07C17.03,12.72,17,12.64,17,12.54c0-0.09,0.04-0.25,0.13-0.48
		c0.04-0.11,0.06-0.19,0.06-0.23c0-0.05-0.02-0.07-0.05-0.07c-0.1,0-0.18,0.1-0.23,0.31c0,0.02-0.01,0.03-0.02,0.03
		s-0.02,0.01-0.03,0.01C16.83,12.11,16.82,12.11,16.82,12.09z"/>
	<path class="st1" d="M17.84,13.57c0-0.02,0.01-0.04,0.02-0.06c0.01-0.01,0.03-0.02,0.05-0.02c0.03,0,0.05,0.02,0.05,0.05
		c0,0.01,0,0.03-0.01,0.04c-0.01,0.01-0.02,0.02-0.04,0.03c0.02,0.01,0.04,0.02,0.06,0.02c0,0,0,0,0,0c0.02,0,0.04-0.01,0.05-0.02
		c0.02-0.01,0.03-0.03,0.04-0.05c0.01-0.02,0.02-0.05,0.02-0.06s0.01-0.04,0.02-0.07c0.01-0.05,0.02-0.09,0.04-0.13
		c0.02-0.08,0.03-0.14,0.03-0.16c0-0.03-0.01-0.05-0.02-0.07s-0.03-0.02-0.05-0.02c-0.03,0-0.06,0.02-0.1,0.05
		c-0.03,0.03-0.06,0.08-0.08,0.14c0,0.01-0.01,0.02-0.01,0.02c0,0-0.01,0-0.02,0c-0.01,0-0.02,0-0.02-0.01s0-0.03,0.02-0.05
		s0.02-0.05,0.04-0.08s0.04-0.05,0.07-0.07S18.07,13,18.11,13c0.07,0,0.12,0.03,0.14,0.1c0.01-0.02,0.03-0.04,0.05-0.07
		c0.02-0.02,0.05-0.03,0.09-0.03c0.03,0,0.06,0.01,0.08,0.02s0.04,0.04,0.04,0.07c0,0.02-0.01,0.04-0.02,0.06
		c-0.02,0.01-0.03,0.02-0.05,0.02c-0.02,0-0.03,0-0.04-0.01c-0.01-0.01-0.01-0.02-0.01-0.03c0,0,0-0.01,0-0.02
		c0-0.01,0.01-0.02,0.02-0.03s0.02-0.02,0.04-0.02c-0.02-0.01-0.04-0.02-0.06-0.02c-0.06,0-0.1,0.05-0.13,0.16
		c-0.02,0.09-0.04,0.16-0.05,0.2c-0.02,0.08-0.03,0.13-0.03,0.15c0,0.03,0.01,0.06,0.02,0.07s0.03,0.02,0.05,0.02
		c0.03,0,0.07-0.02,0.1-0.05c0.03-0.03,0.06-0.08,0.08-0.14c0-0.01,0.01-0.02,0.01-0.02c0,0,0.01,0,0.02,0c0.02,0,0.02,0,0.02,0.01
		c0,0.01,0,0.02-0.01,0.05s-0.02,0.05-0.04,0.08c-0.02,0.03-0.04,0.05-0.07,0.07s-0.06,0.03-0.1,0.03c-0.03,0-0.05-0.01-0.08-0.02
		c-0.03-0.01-0.05-0.04-0.06-0.08c-0.04,0.07-0.09,0.1-0.14,0.1c-0.04,0-0.06-0.01-0.09-0.02C17.85,13.62,17.84,13.6,17.84,13.57z"
		/>
</g>
<g>
	<path class="st5" d="M10.82,13.24c0-0.14,0.04-0.28,0.12-0.4s0.15-0.19,0.21-0.19c0.03,0,0.05,0.01,0.07,0.03s0.03,0.04,0.03,0.06
		c0,0.03-0.02,0.06-0.07,0.09c-0.08,0.05-0.14,0.12-0.19,0.2c-0.05,0.08-0.07,0.17-0.07,0.26c0,0.12,0.04,0.22,0.12,0.31
		c0.08,0.09,0.18,0.13,0.29,0.13c0.02,0,0.04,0,0.08,0c0-0.09,0-0.15,0-0.2c0-0.04,0-0.09,0-0.16c0-0.07,0-0.13,0-0.16
		c0-0.07,0-0.13,0-0.18c0-0.05,0.01-0.1,0.03-0.15s0.04-0.1,0.07-0.13c0.05-0.05,0.11-0.08,0.19-0.08c0.11,0,0.19,0.06,0.26,0.17
		s0.1,0.25,0.1,0.41s-0.06,0.29-0.17,0.4s-0.25,0.17-0.42,0.18c0,0.07,0,0.15,0.01,0.24c0.01,0.09,0.01,0.17,0.02,0.23l0.01,0.09
		c0,0.04-0.01,0.06-0.02,0.08s-0.04,0.02-0.06,0.02c-0.02,0-0.04-0.01-0.06-0.02c-0.02-0.02-0.03-0.04-0.03-0.07
		c0-0.01,0-0.04,0.01-0.1c0.01-0.06,0.02-0.13,0.03-0.22s0.01-0.17,0.02-0.24c-0.18-0.01-0.32-0.08-0.43-0.19
		S10.82,13.38,10.82,13.24z M11.47,13.22c0,0.07,0,0.23,0.01,0.48c0.05-0.02,0.1-0.04,0.15-0.07c0.05-0.03,0.1-0.08,0.15-0.13
		c0.05-0.05,0.09-0.12,0.12-0.2s0.04-0.17,0.04-0.27c0-0.11-0.02-0.19-0.07-0.24c-0.05-0.05-0.09-0.07-0.14-0.07
		c-0.08,0-0.14,0.04-0.19,0.11C11.5,12.9,11.47,13.03,11.47,13.22z"/>
</g>
<path class="st7" d="M9.73,13.91c0.8,0.26,1.54,0.69,2.16,1.25"/>
<g>
	<line class="st8" x1="7.74" y1="19.73" x2="25.94" y2="27.8"/>
	<g>
		<line class="st9" x1="7.74" y1="19.73" x2="24.52" y2="27.17"/>
		<g>
			<polygon class="st1" points="24,27.49 25.94,27.8 24.41,26.56 			"/>
		</g>
	</g>
</g>
<g>
	<g>
		<line class="st10" x1="7.74" y1="19.73" x2="11.45" y2="8.93"/>
		<g>
			<polygon class="st6" points="11.81,9.42 11.95,7.46 10.85,9.09 			"/>
		</g>
	</g>
</g>
<g>
</g>
<g>
</g>
<g>
</g>
<g>
</g>
<g>
</g>
<g>
</g>
<g>
</g>
<g>
</g>
</svg>
